<?xml version="1.0" encoding="iso-8859-1"?>
<!-- Generator: Adobe Illustrator 18.0.0, SVG Export Plug-In . SVG Version: 6.00 Build 0)  -->
<!DOCTYPE svg PUBLIC "-//W3C//DTD SVG 1.1//EN" "http://www.w3.org/Graphics/SVG/1.1/DTD/svg11.dtd">
<svg version="1.1" id="Layer_1" xmlns="http://www.w3.org/2000/svg" xmlns:xlink="http://www.w3.org/1999/xlink" x="0px" y="0px"
	 viewBox="0 0 170 56.382" style="enable-background:new 0 0 170 56.382;" xml:space="preserve">
<g>
	<g>
		<path style="fill:#9ACFDF;" d="M99.17,34.321c-0.918-1.211-1.034-2.678-1.039-2.764c-0.314-2.343,0.487-4.848,1.063-6.27
			c-3.682-1.758-5.423-4.506-6.139-6.008c-1.709-3.801,1.406-5.697,1.437-5.715c0.01-0.009,0.747-0.535,1.667-0.457
			c0.363,0.031,0.705,0.152,1.018,0.359c1.272,0.842,1.321,0.875,1.232,1.132c-0.052,0.148-0.186,0.215-0.4,0.197l-0.08-0.009
			c-0.146-0.018-0.288-0.106-0.485-0.228c-0.268-0.168-0.636-0.395-1.052-0.431c-0.446-0.038-0.872,0.149-1.306,0.571
			c-0.609,0.592-0.914,1.256-0.908,1.976c0.01,1.097,0.723,2.319,2.123,3.634c0.94,0.883,2.452,1.845,4.076,2.597
			c1.593-2.736,5.208-7.473,12.119-10.062c0.077-0.024,0.15-0.031,0.23-0.024c0.006,0,0.496,0.102,0.745,0.289l0.003-0.006
			c2.405,1.338,3.71,3.517,3.925,3.898c0.157,0.142,0.493,0.475,0.639,0.619c0.511,0.449,0.362,1.197,0.264,1.521l0.007,0.012
			l-0.055,0.13c-0.721,1.687-2.455,3.431-2.969,3.924l-0.015,0.015c-1.22,1.26-2.461,2.212-3.689,2.831
			c-1.517,0.763-4.533,1.417-7.568,0.633c-1.753,2.749-1.489,5.171-1.514,5.776c0.021,0.696,0.282,1.598,0.443,1.989
			c0.712,1.595,3.519,1.514,4.709,1.441c3.569-0.22,7.516-1.912,10.792-5.013c2.339-2.214,4.379-5.528,5.131-10.487l0.076-0.177
			l0.192,0.016c1.646,0.14,3.514,1.434,3.593,1.489l0.207,0.144l-0.132,0.216c-0.095,0.156-1.603,7.993-12.115,13.227
			c-3.663,1.757-6.72,2.228-8.913,2.237c-1.851,0-3.247-0.399-4.255-0.869c-0.542-0.253-1.305-0.606-1.839-1.029
			C99.715,35.113,99.313,34.509,99.17,34.321z M114.258,18.87c-1.8-0.151-4.157,0.896-5.989,2.189
			c-1.256,0.942-2.365,2.002-3.299,3.157c1.673,0.199,2.908,0.319,4.895-0.75C109.939,23.425,112.055,21.979,114.258,18.87z"/>
		<path style="fill:#9ACFDF;" d="M51.495,30.999l-0.202,0.234l-0.029,0.001l-0.067,0.124c-0.219,0.405-1.432,2.526-3.827,4.567
			c-1.947,1.655-4.034,1.641-4.628,1.598c-0.108-0.008-0.169-0.017-0.174-0.017l-0.03-0.004l-0.028,0.003
			c-0.008,0-0.043,0.003-0.097-0.001c-0.335-0.024-1.15-0.263-1.484-1.928c-0.06-0.473-0.06-0.951-0.054-1.307
			c0.039-0.728,0.146-1.425,0.315-2.071l0.026-0.1c0.098-0.37,0.486-1.741,1.104-2.914c0.482,0.297,1.494,0.858,2.351,0.92
			c0.098,0.007,0.195,0.008,0.272,0.002c0.019,0,2.092-0.208,4.373-3.577l0.012-0.017c0.327-0.449,1.42-2.022,1.745-3.412
			l0.024-0.101l-0.006-0.009c0.031-0.256,0.05-0.848-0.385-1.141c-0.063-0.061-0.228-0.211-0.412-0.268
			c-0.054-0.056-0.121-0.104-0.171-0.137c-0.216-0.269-1.496-1.78-3.502-2.5c-0.028-0.011-0.284-0.109-0.503-0.124
			c-0.115-0.009-0.207,0.006-0.292,0.051c-3.902,2.285-6.812,5.845-8.193,10.021l-0.013,0.039l0.005,0.001
			c-0.201,0.512-1.134,3.696-0.342,6.246c0.004,0.016,0.008,0.033,0.012,0.048c0.085,0.31,0.583,1.891,2.014,2.533l0.003-0.007
			c0.404,0.315,1.664,0.895,2.245,1.034c0.511,0.123,1.024,0.203,1.524,0.24c0.703,0.052,1.36,0.013,1.952-0.113
			c1.081-0.23,3.091-0.658,4.913-2.049c0.611-0.466,1.19-0.957,1.687-1.399c0-0.828,0.045-1.657,0.112-2.487
			C51.603,32.342,51.518,31.682,51.495,30.999z M47.94,23.321c-1.273,2.677-2.681,4.034-2.734,4.084
			c-1.027,0.904-1.755,1.057-2.186,1.025c-0.094-0.006-0.172-0.022-0.233-0.04C44.029,25.797,46.77,23.998,47.94,23.321z"/>
		<path style="fill:#9ACFDF;" d="M73.518,36.784c-0.834-0.131-1.57-0.479-2.04-0.749c-0.424-0.243-1.386-1.129-1.669-1.574
			l-0.005,0.009c-1.023-0.939-1.168-2.719-1.144-3.246l-0.008,0.002c-0.116-2.988,1.372-6.37,1.642-6.874l-0.001-0.001l0.019-0.041
			c2.071-4.372,5.296-7.771,9.083-9.571c0.062-0.025,0.117-0.03,0.18-0.021c0.202,0.031,0.452,0.231,0.48,0.254
			c1.535,1.176,2.285,3.091,2.411,3.433c0.038,0.05,0.081,0.114,0.114,0.182c0.144,0.099,0.25,0.296,0.29,0.378
			c0.298,0.399,0.171,1.026,0.082,1.331l0.005,0.012l-0.047,0.121c-0.575,1.481-1.839,3.022-2.213,3.458l-0.014,0.016
			c-2.665,3.321-4.44,3.15-4.457,3.147c0,0-0.001,0-0.001,0c-0.793-0.124-1.635-1.045-2.018-1.514c-0.766,1.172-1.381,2.594-1.55,3
			l-0.049,0.12c-0.286,0.691-0.526,1.443-0.714,2.236c-0.083,0.395-0.186,0.927-0.238,1.457c-0.092,2.206,0.796,2.41,0.898,2.425
			l0.061,0.015c0.002,0.001,0.256,0.111,0.68,0.178c0.867,0.136,2.214,0.069,3.703-1.023c1.328-0.978,2.367-2.04,3.086-2.877
			c0.622-0.724,1.704-2.053,1.797-2.168c0.053-0.066,0.135-0.168,0.289-0.353c0.116-0.139,0.272-0.325,0.487-0.577
			c0.332-0.411,0.598-0.44,0.727-0.42c0.025,0.004,0.048,0.01,0.068,0.019c0.07,0.026,0.17,0.109,0.216,0.265
			c0.064,0.219,0.004,0.489-0.178,0.805c-0.136,0.24-0.647,2.278-1.065,4.115l-0.022,0.096l-0.065,0.058
			c-0.016,0.014-1.616,1.435-3.367,2.577c-1.842,1.203-3.629,1.296-4.588,1.346C74.105,36.846,73.814,36.831,73.518,36.784z
			 M74.783,24.73c0.076,0.049,0.183,0.097,0.328,0.119l0,0c0.346,0.054,0.958-0.033,1.91-0.758c0.059-0.049,1.533-1.289,3.173-3.988
			C79.051,20.639,76.384,22.109,74.783,24.73z"/>
		<path style="fill:#9ACFDF;" d="M53.514,37.729c-0.432-0.076-0.895-0.257-1.132-0.359c-1.385-0.338-2.051-1.552-2.365-2.511
			c-0.116-0.356-0.282-1.061-0.276-1.369l-0.007,0c-0.172-3.928,4.587-14.57,4.927-15.219l-0.003-0.002
			C59.01,8.367,66.797,1.278,67.945,0.452l-0.016-0.019c0.423-0.499,1.116-0.461,1.492-0.395c0.133,0.024,0.221,0.041,0.28,0.068
			c0.411,0.135,1.326,0.655,1.591,0.971L71.3,1.064c0.754,0.658,1.12,1.147,1.159,1.2c0.355,0.385,0.469,0.898,0.527,1.301
			c0.018,0.498-0.056,0.72-0.121,0.916c-1.795,4.026-8.693,13.4-8.693,13.4c-2.494,3.122-4.937,6.069-6.934,8.262
			c-0.841,0.923-2.661,2.889-4.222,4.855c-0.174,0.597-0.331,1.215-0.415,1.551l-0.024,0.097c-0.476,1.965-0.224,2.749-0.138,2.938
			c0.018,0.005,0.036,0.009,0.054,0.012c0.538,0.096,1.137-0.48,1.252-0.597l0.064-0.064h0.004
			c2.879-2.745,7.181-8.063,9.126-10.264c0.624-0.707,1.386-1.462,1.416-1.441c0.126,0.074,0.199,0.218,0.207,0.408
			c0.008,0.184-0.032,0.259-0.064,0.294l-0.371,0.509c-1.091,1.541-5.35,7.822-6.876,10.114c-0.843,1.209-1.72,2.267-2.077,2.527
			l0.008,0.012c-0.636,0.636-1.237,0.669-1.303,0.671C53.767,37.763,53.646,37.752,53.514,37.729z M69.402,4.918
			C65.54,8.244,59.314,15.672,54.153,27.061c1.032-1.328,2.237-2.492,5.3-6.741l3.067-4.321c0.069-0.117,0.232-0.339,0.602-0.84
			C64.682,13.047,67.299,9.136,69.402,4.918z"/>
		<path style="fill:#9ACFDF;" d="M63.374,36.553c-0.129-0.002-0.25-0.062-0.296-0.089c-0.591-0.281-1.141-0.653-1.164-0.669
			c-0.46-0.26-0.821-0.932-0.868-1.271l-0.004,0.001c-0.226-0.776-0.023-2.251,0.189-3.359c-0.01-1.545,1.232-4.458,1.285-4.581
			l0.108-0.357c0.066-0.219,0.133-0.439,0.202-0.658c0.19-0.588,2.053-3.763,2.423-4.472c0.806-1.528,1.637-3.05,2.47-4.527
			c0.173-0.694,0.808-0.833,0.928-0.832c-0.004-0.001,0.02-0.002,0.046-0.002c0.684,0.009,2.676,1.208,2.871,1.351
			c0.681,0.497,0.736,0.795,0.663,0.959c-0.031,0.07-0.127,0.228-0.284,0.471c-1.666,2.532-3.341,5.245-3.657,5.762l-0.053,0.088
			c-1.429,2.367-2.558,4.675-3.138,6.047c-0.363,0.843-0.673,1.688-0.676,1.696c-0.062,0.154-0.417,1.635-0.628,2.536
			c-0.074,0.311-0.112,0.677-0.114,1.087c0,0.077,0.014,0.124,0.015,0.124l0.016,0.048c0.092,0.163,0.06,0.329-0.004,0.436
			C63.646,36.478,63.526,36.555,63.374,36.553z"/>
		<path style="fill:#9ACFDF;" d="M72.4,15.871c-0.188-0.003-0.548-0.16-1.119-0.419c-0.296-0.133-0.603-0.272-0.817-0.348
			c-0.29-0.107-0.447-0.326-0.434-0.602c0.006-0.124,0.078-0.348,0.178-0.494c0.088-0.284,0.984-1.551,1.734-2.58
			c1.17-1.608,1.598-2.127,1.793-2.294c0.14-0.243,0.404-0.316,0.563-0.322c0.052-0.011,0.109-0.016,0.17-0.016
			c0.098,0.001,0.542,0.082,0.771,0.222l0.003-0.006c1.2,0.47,1.865,1,2.095,1.206v0.001c0.372,0.256,0.461,0.547,0.478,0.711
			l0.031,0.032l-0.036,0.121c-0.077,0.255-0.272,0.43-0.412,0.528l0.001,0.004l-0.057,0.032c-0.039,0.024-0.07,0.041-0.088,0.051
			c-1.778,1.017-4.151,3.558-4.367,3.842c-0.084,0.219-0.273,0.302-0.397,0.321l-0.013,0.005L72.4,15.871z"/>
		<path style="fill:#9ACFDF;" d="M86.359,34.384c-0.51-0.043-1.015-0.452-1.208-0.627l0,0c-0.469-0.385-0.941-0.767-1.416-1.147
			c-1.325-1.096-1.742-2.307-1.82-2.681c-1.052-2.076,1.909-8.122,2.038-8.368c0.004-0.01,0.009-0.02,0.014-0.03
			c0.735-1.575,1.143-2.981,1.09-3.761c0.057-0.687,0.009-1.283-0.142-1.808c-0.067-0.146-0.072-0.313-0.046-0.425l0,0
			c0.019-0.112,0.115-0.368,0.619-0.325c0.064,0.006,0.126,0.011,0.181,0.027l0,0c2.196,0.547,3.497,1.829,3.658,1.995
			c0.703,0.621,0.656,1.74,0.638,1.966c-0.025,1.388-0.73,2.726-1.021,3.221l0.001,0.003l-0.066,0.105
			c-0.895,1.431-1.347,2.256-1.536,2.622l-0.072,0.138l-0.006,0.001c-1.465,2.59-1.776,4.997-1.836,5.68l-0.002,0.017
			c0.008,0.16,0.026,0.298,0.049,0.414c0.39-0.695,1.178-1.964,1.588-2.36l-0.021-0.013c0.548-0.858,1.299-1.653,1.456-1.816
			c0.734-0.975,1.357-1.761,1.667-2.105c1.688-1.933,3.307-4.409,3.925-5.382c0.01-0.016,0.02-0.032,0.031-0.048l-0.001,0
			c1.095-1.776,1.916-3.421,2.439-4.89c0.107-0.504-0.008-0.762-0.071-0.858l-0.064-0.074c-0.118-0.139-0.124-0.262-0.107-0.34
			c0.019-0.093,0.077-0.162,0.134-0.202c0.06-0.05,0.157-0.098,0.299-0.085c0.15,0.013,0.286,0.088,0.312,0.104
			c3.3,1.417,3.697,3.567,3.743,3.984l0,0c0.235,1.415-1.149,3.182-1.815,3.936l0.002,0.01L98.9,21.351
			c-0.033,0.033-3.052,3.004-3.796,3.507l0.018,0.023c-3.533,2.792-5.061,4.529-5.658,5.316c-0.018,0.024-0.036,0.047-0.054,0.068
			c-1.505,1.902-1.928,2.774-2.024,3.005c-0.168,0.954-0.611,1.085-0.767,1.1C86.535,34.387,86.448,34.391,86.359,34.384z"/>
		<path style="fill:#9ACFDF;" d="M7.961,56.382c-2.551,0-4.601-0.793-6.093-2.357c-0.418-0.461-0.924-1.311-0.945-1.347
			c-1.418-2.011-0.803-5.471-0.711-5.916l-0.005-0.001c0.317-1.436,0.937-2.904,1.895-4.487c2.278-3.844,7.271-7.101,8.363-7.713
			c1.61-5.009,3.435-10.037,5.427-14.955c-6.457,3.833-8.715,5.643-9.502,6.422c0.277-0.052,0.487-0.108,0.609-0.145l0-0.002
			l0.136-0.042c0.102-0.031,0.189-0.046,0.265-0.046c0.188,0,0.306,0.098,0.348,0.216c0.042,0.071,0.06,0.154,0.049,0.238
			c-0.016,0.136-0.102,0.273-0.255,0.409l0.006,0.012l-0.176,0.12c-1.321,0.9-2.711,1.542-3.089,1.676l0.002,0.005
			c-0.252,0.11-0.506,0.166-0.753,0.166c-0.935,0-1.534-0.795-1.676-1.043c-0.833-1.054-1.505-2.146-1.626-2.606l-0.016,0.006
			c-0.191-0.506,0.074-1.012,0.362-1.295c4.028-4.517,14.934-10.065,16.13-10.514l-0.002-0.004
			c5.913-2.793,11.382-3.796,12.419-3.969l0.024-0.004c1.02-0.215,2.134-0.323,3.312-0.323c0.773,0,1.969,0.03,2.446,0.205
			l0.007-0.038c2.409,0.414,3.213,2.966,3.352,3.48c0.728,1.84-1.415,4.404-2.407,5.455l0.002,0.013l-0.099,0.09
			c-2.041,1.846-4.031,3.073-5.157,3.697c0.023,0,0.047,0,0.07,0c5.063,0,6.983,4.281,7.316,5.14l0.006,0.015
			c1.701,3.699-0.598,8.123-1.666,9.854c-0.018,0.03-0.033,0.053-0.043,0.071l-0.017,0.033c-1.022,1.921-3.304,5.175-8.375,9.767
			c-0.031,0.029-0.06,0.054-0.085,0.077l0.006,0.01l-0.167,0.141c-3.371,2.849-6.521,5.039-9.914,6.89
			c-4.089,2.223-8.362,2.539-8.836,2.568C8.572,56.371,8.26,56.382,7.961,56.382z M2.852,51.957c0.899,0.737,2.087,1.11,3.532,1.11
			c2.138,0,4.734-0.781,7.718-2.32c0.155-0.08,0.226-0.116,0.272-0.133c2.831-1.481,6.321-3.879,10.093-6.935
			c0.105-0.086,0.171-0.139,0.217-0.172l-0.001,0c4.051-3.33,7.372-6.961,9.872-10.791c1.834-2.792,1.649-4.948,1.628-5.139
			c-0.548-1.56-2.185-2.351-4.865-2.351c-3.683,0-8.167,1.514-9.093,1.911l0.013,0.039l-0.236,0.074
			c-0.917,0.289-2.078,0.976-2.398,1.171l-0.001,0.006l-0.1,0.057c-0.48,0.272-0.992,0.657-1.657,1.247
			c-0.23,0.595-0.456,1.19-0.679,1.786c1.363-0.351,3.145-0.482,3.161-0.482c0.395-0.071,0.848-0.109,1.307-0.109
			c1.54,0,3.409,0.53,3.952,0.911l0.009-0.021c0.658,0.286,1.604,0.82,2.37,1.735c0.523,0.504,0.429,1.06,0.247,1.389l0.023,0.046
			l-0.146,0.124c-0.101,0.085-0.226,0.13-0.364,0.13c-0.165,0-0.349-0.064-0.546-0.19c-0.106-0.068-0.177-0.122-0.223-0.166
			c-1.166-0.726-2.665-0.88-3.719-0.88c-0.598,0-1.085,0.051-1.298,0.079l-0.004,0.008l-0.129,0.012
			c-2.418,0.236-5.89,1.698-6.306,1.878l-0.025,0.032c-1.292,3.675-2.493,7.436-3.572,11.178c-0.173,0.661-0.19,1.517-0.19,1.526
			c-0.022,0.347-0.042,0.663,0.055,0.961c0.173,0.559-0.012,0.936-0.138,1.112c-0.028,0.039-0.055,0.073-0.083,0.1
			c-0.154,0.189-0.383,0.289-0.663,0.289c-0.323,0-0.647-0.133-0.792-0.201h-0.015l-0.06-0.039c-0.557-0.362-1.115-0.72-1.676-1.077
			c-0.955-0.548-0.932-1.99-0.902-2.419c0.004-0.061,0.008-0.114,0.017-0.16l-0.001,0c0.556-3.902,1.023-5.941,1.313-6.958
			C1.477,46.063,2.517,50.92,2.852,51.957z M22.324,19.02c-0.878,1.966-1.737,3.969-2.556,5.962
			c2.727-1.303,6.294-3.876,10.618-7.66c0.196-0.172,0.304-0.266,0.372-0.317l0-0.001c1.149-1.022,2.415-2.235,3.965-3.803
			c-0.225-0.073-0.526-0.111-0.89-0.111c-3.298,0-10.674,2.885-12.183,3.564c0.125,0.13,0.249,0.26,0.374,0.39
			c0.633,0.466,0.589,1.276,0.345,1.875c0,0-0.034,0.08-0.042,0.097L22.324,19.02z"/>
		<path style="fill:#9ACFDF;" d="M37.722,47.744c0,0-0.592,2.07,2.03,4.87c0.937,0.741,0.749-0.082,1.218-0.576
			c0,0,7.962-5.105,19.297-8.563c11.334-3.459,23.137-5.517,29.507-5.023c1.592,0.082,2.154,0.33,2.154,0.906
			c0,0.576-0.562,0.33,0,0.576c0.562,0.247,1.405-0.659,1.405-1.565c0-0.906,0.218-2.318-2.03-2.565
			c-2.248-0.247-13.489-0.659-27.071,2.47C50.648,41.403,40.532,45.685,37.722,47.744z"/>
	</g>
	<g>
		<path style="fill:#948478;" d="M122.534,39.491l1.519-7.088h1.012l1.519,7.088h-1.013l-0.379-1.772h-1.266l-0.38,1.772H122.534z
			 M124.053,36.959h1.012l-0.506-3.038L124.053,36.959z"/>
		<path style="fill:#948478;" d="M131.457,39.562c-0.638,0-1.125-0.187-1.461-0.562c-0.336-0.374-0.524-0.886-0.564-1.534
			l1.012-0.253c0.05,1.012,0.388,1.519,1.013,1.519c0.506,0,0.759-0.253,0.759-0.76c0-0.15-0.021-0.289-0.061-0.417
			c-0.041-0.128-0.103-0.245-0.188-0.352c-0.085-0.107-0.161-0.193-0.229-0.257c-0.069-0.064-0.162-0.144-0.281-0.239l-1.266-1.012
			c-0.232-0.182-0.417-0.413-0.556-0.694c-0.138-0.281-0.208-0.6-0.208-0.959c0-0.522,0.162-0.937,0.486-1.246
			c0.324-0.308,0.754-0.463,1.29-0.463c0.575,0,1.031,0.14,1.37,0.421c0.339,0.281,0.548,0.678,0.627,1.192
			c0.008,0.056,0.017,0.132,0.028,0.23l-1.012,0.253c-0.003-0.045-0.009-0.112-0.02-0.202c-0.045-0.322-0.146-0.58-0.302-0.773
			c-0.157-0.194-0.387-0.291-0.69-0.291c-0.243,0-0.43,0.068-0.562,0.204c-0.132,0.136-0.198,0.325-0.198,0.568
			c0,0.398,0.169,0.732,0.507,1.001l1.266,1.012c0.675,0.546,1.012,1.199,1.012,1.958c0,0.52-0.16,0.925-0.48,1.218
			C132.428,39.415,131.997,39.562,131.457,39.562z"/>
		<path style="fill:#948478;" d="M137.158,39.443c-0.235,0.082-0.507,0.123-0.815,0.123c-0.309,0-0.58-0.041-0.815-0.123
			c-0.235-0.082-0.428-0.196-0.58-0.342c-0.151-0.146-0.275-0.33-0.37-0.552c-0.095-0.221-0.162-0.461-0.202-0.718
			c-0.039-0.257-0.059-0.548-0.059-0.872v-4.557h1.012v4.557c0,0.219,0.005,0.402,0.014,0.55c0.01,0.148,0.034,0.305,0.074,0.473
			c0.039,0.168,0.094,0.301,0.164,0.401c0.07,0.1,0.169,0.183,0.297,0.249c0.128,0.066,0.283,0.099,0.465,0.099
			c0.182,0,0.337-0.033,0.464-0.099c0.128-0.066,0.227-0.149,0.297-0.249c0.07-0.1,0.125-0.234,0.164-0.401
			c0.039-0.167,0.064-0.325,0.073-0.473c0.009-0.148,0.014-0.331,0.014-0.55v-4.557h1.012v4.557c0,0.324-0.02,0.615-0.059,0.872
			c-0.04,0.257-0.107,0.497-0.202,0.718c-0.095,0.222-0.218,0.406-0.37,0.552C137.586,39.247,137.392,39.361,137.158,39.443z"/>
		<path style="fill:#948478;" d="M139.731,39.491v-7.088h1.266c0.754,0,1.322,0.146,1.705,0.439
			c0.382,0.293,0.573,0.779,0.573,1.459c0,0.422-0.075,0.775-0.225,1.06c-0.15,0.285-0.371,0.48-0.661,0.585l1.139,3.544h-1.005
			l-1.02-3.291h-0.76v3.291H139.731z M140.743,35.44h0.253c0.422,0,0.738-0.089,0.949-0.267c0.211-0.178,0.317-0.469,0.317-0.872
			s-0.106-0.694-0.317-0.872c-0.211-0.178-0.527-0.267-0.949-0.267h-0.253V35.44z"/>
		<path style="fill:#948478;" d="M144.518,39.491v-7.088h2.785v0.759h-1.772v2.278h1.266V36.2h-1.266v3.291H144.518z"/>
		<path style="fill:#948478;" d="M147.743,40.503l-0.253-0.507c0.182,0,0.312-0.039,0.39-0.119c0.078-0.079,0.116-0.208,0.116-0.387
			h-0.506v-1.013h1.013c0,0.38-0.004,0.699-0.012,0.957c-0.005,0.142-0.013,0.262-0.024,0.36c-0.011,0.098-0.032,0.195-0.063,0.291
			c-0.031,0.096-0.074,0.173-0.127,0.229c-0.053,0.057-0.123,0.102-0.212,0.136C147.977,40.486,147.87,40.503,147.743,40.503z"/>
		<path style="fill:#948478;" d="M152.766,39.491v-2.278l-1.519-4.81h1.013l1.013,3.544l1.012-3.544h1.012l-1.519,4.81v2.278
			H152.766z"/>
		<path style="fill:#948478;" d="M157.925,39.562c-0.356,0-0.661-0.054-0.916-0.162c-0.254-0.108-0.457-0.266-0.607-0.475
			c-0.15-0.208-0.26-0.453-0.328-0.734c-0.069-0.281-0.103-0.607-0.103-0.979v-2.571c0-0.372,0.034-0.696,0.103-0.973
			c0.069-0.277,0.178-0.518,0.328-0.722c0.15-0.204,0.353-0.358,0.607-0.461c0.254-0.103,0.56-0.154,0.916-0.154
			c0.691,0,1.189,0.198,1.495,0.593c0.306,0.396,0.459,0.968,0.459,1.717v2.571c0,0.366-0.035,0.69-0.105,0.971
			c-0.07,0.281-0.18,0.526-0.331,0.736c-0.15,0.21-0.353,0.369-0.607,0.478C158.582,39.507,158.278,39.562,157.925,39.562z
			 M157.187,38.411c0.136,0.213,0.382,0.321,0.738,0.321c0.356,0,0.602-0.107,0.738-0.321c0.136-0.214,0.203-0.529,0.203-0.945
			v-3.077c0-0.411-0.067-0.719-0.201-0.921c-0.135-0.203-0.381-0.305-0.74-0.305c-0.359,0-0.605,0.102-0.74,0.305
			c-0.135,0.203-0.201,0.51-0.201,0.921v3.077C156.984,37.882,157.052,38.197,157.187,38.411z"/>
		<path style="fill:#948478;" d="M163.068,39.562c-0.324,0-0.606-0.046-0.844-0.138c-0.239-0.092-0.433-0.217-0.584-0.376
			c-0.15-0.158-0.27-0.36-0.36-0.605c-0.09-0.245-0.151-0.503-0.186-0.775c-0.035-0.272-0.051-0.584-0.051-0.937v-1.796
			c0-1.735,0.688-2.603,2.064-2.603c0.33,0,0.616,0.049,0.858,0.148c0.242,0.099,0.439,0.243,0.589,0.433
			c0.15,0.19,0.264,0.412,0.34,0.667c0.076,0.254,0.122,0.549,0.135,0.884c0.003,0.047,0.004,0.12,0.004,0.217h-1.013v-0.213
			c-0.002-0.166-0.011-0.309-0.026-0.429c-0.014-0.12-0.041-0.238-0.079-0.354c-0.038-0.116-0.09-0.21-0.156-0.283
			c-0.066-0.072-0.154-0.131-0.263-0.174c-0.11-0.043-0.239-0.065-0.39-0.065c-0.205,0-0.379,0.038-0.52,0.113
			c-0.141,0.075-0.249,0.185-0.324,0.328c-0.075,0.144-0.128,0.302-0.16,0.474c-0.032,0.173-0.048,0.374-0.048,0.603v2.278
			c0,0.169,0.005,0.321,0.016,0.457c0.01,0.136,0.028,0.274,0.053,0.415c0.025,0.141,0.062,0.263,0.111,0.366
			c0.049,0.103,0.109,0.196,0.182,0.279c0.072,0.083,0.163,0.147,0.273,0.19c0.11,0.043,0.235,0.065,0.378,0.065
			c0.169,0,0.315-0.033,0.439-0.099c0.124-0.066,0.222-0.151,0.295-0.255c0.073-0.104,0.13-0.237,0.172-0.398
			c0.042-0.161,0.07-0.32,0.085-0.478c0.014-0.158,0.022-0.339,0.022-0.542v-0.253h-1.013v-0.751h2.025v3.536h-0.759l-0.253-0.759
			C163.883,39.285,163.546,39.562,163.068,39.562z"/>
		<path style="fill:#948478;" d="M165.874,39.491l1.519-7.088h1.012l1.519,7.088h-1.013l-0.379-1.772h-1.266l-0.38,1.772H165.874z
			 M167.393,36.959h1.012l-0.506-3.038L167.393,36.959z"/>
		<path style="fill:#948478;" d="M99.904,48.257c-0.469,0-0.84-0.145-1.111-0.435c-0.272-0.29-0.408-0.675-0.408-1.155
			c0-0.754,0.338-1.429,1.013-2.025c-0.037-0.076-0.113-0.221-0.229-0.433c-0.116-0.212-0.204-0.382-0.265-0.51
			c-0.061-0.128-0.12-0.294-0.178-0.498c-0.058-0.204-0.087-0.399-0.087-0.583c0-0.475,0.137-0.858,0.412-1.151
			c0.274-0.292,0.643-0.439,1.108-0.439c0.435,0,0.797,0.121,1.085,0.362c0.289,0.241,0.433,0.566,0.433,0.975
			c0,0.185-0.029,0.372-0.087,0.561c-0.058,0.19-0.127,0.359-0.208,0.506c-0.08,0.148-0.184,0.304-0.31,0.469
			c-0.126,0.165-0.237,0.298-0.331,0.399c-0.093,0.102-0.203,0.216-0.33,0.342l1.012,1.519c0.048-0.105,0.088-0.237,0.123-0.396
			c0.034-0.158,0.058-0.281,0.069-0.37c0.012-0.088,0.032-0.256,0.061-0.501h1.012c0,0.322-0.062,0.656-0.186,1.001
			c-0.124,0.346-0.272,0.647-0.443,0.906c0.198,0.248,0.407,0.372,0.629,0.372v1.084c-0.066,0-0.129-0.004-0.188-0.01
			c-0.06-0.007-0.12-0.021-0.18-0.044c-0.061-0.022-0.112-0.041-0.154-0.055c-0.042-0.015-0.093-0.042-0.152-0.083
			c-0.059-0.041-0.102-0.068-0.128-0.083c-0.027-0.014-0.07-0.049-0.131-0.105c-0.061-0.055-0.098-0.088-0.111-0.099
			c-0.013-0.01-0.053-0.048-0.119-0.113c-0.066-0.064-0.1-0.098-0.103-0.101c-0.166,0.211-0.378,0.379-0.635,0.505
			C100.531,48.194,100.237,48.257,99.904,48.257z M99.904,47.427c0.322,0,0.617-0.169,0.886-0.507l-0.486-0.724
			c-0.034-0.055-0.093-0.137-0.176-0.243c-0.083-0.107-0.155-0.206-0.216-0.297c-0.061-0.091-0.104-0.176-0.131-0.256
			c-0.116,0.153-0.209,0.342-0.278,0.566c-0.07,0.224-0.105,0.458-0.105,0.7c0,0.222,0.039,0.403,0.118,0.546
			C99.596,47.355,99.725,47.427,99.904,47.427z M100.035,44.135c0.169-0.211,0.316-0.482,0.441-0.813
			c0.125-0.331,0.188-0.651,0.188-0.959c0-0.153-0.046-0.276-0.139-0.368c-0.092-0.092-0.215-0.138-0.367-0.138
			c-0.172,0-0.299,0.075-0.382,0.224c-0.083,0.149-0.125,0.328-0.125,0.536c0,0.171,0.022,0.357,0.067,0.558
			c0.045,0.2,0.09,0.365,0.135,0.493C99.898,43.795,99.958,43.951,100.035,44.135z"/>
		<path style="fill:#948478;" d="M106.96,48.186l-1.266-7.088h1.012l0.506,3.291l0.257,2.025l0.249-2.025l0.507-3.291h1.012
			l0.506,3.291l0.249,2.025l0.257-2.025l0.506-3.291h1.013l-1.266,7.088h-1.012l-0.506-3.291l-0.253-2.025l-0.253,2.025
			l-0.507,3.291H106.96z"/>
		<path style="fill:#948478;" d="M112.772,48.186v-7.088h1.012v7.088H112.772z"/>
		<path style="fill:#948478;" d="M115.273,48.186v-7.088h1.012v6.329h1.772v0.759H115.273z"/>
		<path style="fill:#948478;" d="M118.934,48.186v-7.088h1.57c0.741,0,1.263,0.152,1.568,0.455c0.304,0.303,0.457,0.826,0.457,1.57
			v2.785c0,0.778-0.155,1.352-0.464,1.722c-0.31,0.371-0.833,0.556-1.568,0.556H118.934z M119.946,47.427h0.558
			c0.166,0,0.308-0.015,0.427-0.046c0.119-0.03,0.215-0.086,0.289-0.166c0.074-0.08,0.132-0.157,0.174-0.23
			c0.042-0.072,0.072-0.185,0.089-0.338c0.017-0.153,0.027-0.279,0.03-0.378c0.002-0.099,0.004-0.252,0.004-0.461
			c0-0.068,0-0.12,0-0.154v-2.278c0-0.129-0.001-0.232-0.002-0.309c-0.001-0.076-0.006-0.167-0.012-0.271
			c-0.006-0.104-0.016-0.187-0.03-0.247c-0.013-0.06-0.032-0.128-0.055-0.203c-0.024-0.075-0.054-0.134-0.089-0.176
			c-0.036-0.042-0.079-0.086-0.131-0.133c-0.051-0.046-0.111-0.08-0.178-0.103c-0.067-0.022-0.146-0.04-0.235-0.055
			c-0.09-0.014-0.19-0.022-0.301-0.022h-0.538V47.427z"/>
		<path style="fill:#948478;" d="M123.82,48.186v-7.088h1.012v6.329h1.772v0.759H123.82z"/>
		<path style="fill:#948478;" d="M127.528,48.186v-7.088h1.013v7.088H127.528z"/>
		<path style="fill:#948478;" d="M130.029,48.186v-7.088h2.784v0.759h-1.772v2.278h1.266v0.759h-1.266v3.291H130.029z"/>
		<path style="fill:#948478;" d="M133.681,48.186v-7.088h2.785v0.759h-1.772v2.278h1.266v0.759h-1.266v2.532h1.772v0.759H133.681z"
			/>
		<path style="fill:#948478;" d="M139.036,48.186v-0.759c0.219,0,0.39-0.012,0.512-0.036c0.123-0.024,0.223-0.074,0.302-0.152
			c0.079-0.077,0.132-0.179,0.158-0.304c0.027-0.125,0.04-0.298,0.04-0.52v-5.316h1.012v5.316c0,0.322-0.021,0.587-0.063,0.797
			c-0.042,0.21-0.12,0.391-0.232,0.544c-0.112,0.153-0.268,0.263-0.466,0.33c-0.199,0.067-0.452,0.101-0.758,0.101H139.036z"/>
		<path style="fill:#948478;" d="M144.306,48.257c-0.356,0-0.661-0.054-0.915-0.162c-0.254-0.108-0.457-0.266-0.608-0.475
			c-0.15-0.208-0.259-0.453-0.328-0.734c-0.069-0.281-0.103-0.607-0.103-0.979v-2.571c0-0.372,0.034-0.696,0.103-0.973
			c0.068-0.277,0.178-0.518,0.328-0.722c0.15-0.204,0.353-0.358,0.608-0.461c0.254-0.103,0.56-0.154,0.915-0.154
			c0.691,0,1.189,0.198,1.495,0.593c0.306,0.396,0.459,0.968,0.459,1.717v2.571c0,0.366-0.035,0.69-0.105,0.971
			c-0.07,0.281-0.18,0.526-0.331,0.736c-0.15,0.21-0.352,0.369-0.607,0.478C144.963,48.202,144.66,48.257,144.306,48.257z
			 M143.568,47.106c0.136,0.213,0.382,0.321,0.738,0.321c0.356,0,0.602-0.107,0.738-0.321c0.136-0.213,0.203-0.529,0.203-0.945
			v-3.077c0-0.411-0.067-0.719-0.202-0.921c-0.134-0.203-0.381-0.305-0.739-0.305c-0.359,0-0.605,0.102-0.74,0.305
			c-0.134,0.203-0.201,0.51-0.201,0.921v3.077C143.365,46.577,143.433,46.893,143.568,47.106z"/>
		<path style="fill:#948478;" d="M150.336,48.138c-0.235,0.082-0.506,0.123-0.815,0.123c-0.309,0-0.58-0.041-0.815-0.123
			c-0.235-0.082-0.428-0.196-0.579-0.342c-0.152-0.146-0.275-0.33-0.37-0.552c-0.095-0.221-0.162-0.461-0.202-0.718
			c-0.039-0.257-0.059-0.548-0.059-0.872v-4.557h1.013v4.557c0,0.219,0.004,0.402,0.014,0.55c0.009,0.148,0.034,0.305,0.073,0.473
			c0.04,0.168,0.095,0.301,0.164,0.401c0.07,0.1,0.169,0.184,0.297,0.249c0.127,0.066,0.283,0.099,0.464,0.099
			c0.182,0,0.337-0.033,0.465-0.099c0.128-0.066,0.227-0.149,0.297-0.249c0.07-0.1,0.125-0.234,0.164-0.401
			c0.04-0.167,0.064-0.325,0.073-0.473c0.009-0.148,0.014-0.331,0.014-0.55v-4.557h1.012v4.557c0,0.324-0.02,0.615-0.06,0.872
			c-0.039,0.257-0.107,0.497-0.201,0.718c-0.095,0.222-0.218,0.406-0.37,0.552C150.763,47.943,150.57,48.056,150.336,48.138z"/>
		<path style="fill:#948478;" d="M152.908,48.186v-7.088h1.266c0.754,0,1.322,0.147,1.705,0.439
			c0.382,0.293,0.574,0.779,0.574,1.459c0,0.422-0.075,0.775-0.226,1.06c-0.15,0.285-0.37,0.48-0.66,0.585l1.139,3.544H155.7
			l-1.02-3.291h-0.759v3.291H152.908z M153.921,44.135h0.253c0.422,0,0.738-0.089,0.949-0.267c0.211-0.178,0.316-0.469,0.316-0.872
			c0-0.403-0.105-0.694-0.316-0.872c-0.211-0.178-0.528-0.267-0.949-0.267h-0.253V44.135z"/>
		<path style="fill:#948478;" d="M157.696,48.186v-7.088h0.759l1.772,4.382v-4.382h1.013v7.088h-0.72l-1.811-4.715v4.715H157.696z"
			/>
		<path style="fill:#948478;" d="M162.657,48.186v-7.088h2.784v0.759h-1.772v2.278h1.266v0.759h-1.266v2.532h1.772v0.759H162.657z"
			/>
		<path style="fill:#948478;" d="M167.468,48.186v-2.278l-1.519-4.81h1.012l1.013,3.544l1.013-3.544H170l-1.519,4.81v2.278H167.468z
			"/>
	</g>
</g>
<g>
</g>
<g>
</g>
<g>
</g>
<g>
</g>
<g>
</g>
<g>
</g>
</svg>
