<?xml version="1.0" encoding="utf-8"?>
<!-- Generator: Adobe Illustrator 18.0.0, SVG Export Plug-In . SVG Version: 6.00 Build 0)  -->
<!DOCTYPE svg PUBLIC "-//W3C//DTD SVG 1.1//EN" "http://www.w3.org/Graphics/SVG/1.1/DTD/svg11.dtd">
<svg version="1.1" id="Capa_1" xmlns="http://www.w3.org/2000/svg" xmlns:xlink="http://www.w3.org/1999/xlink" x="0px" y="0px"
	 viewBox="1.4 123.3 592.4 595.3" enable-background="new 1.4 123.3 592.4 595.3" xml:space="preserve">
<path fill="#80D1E1" d="M320.1,420.9l268.8-268.8c6.6-6.6,6.6-17.2,0-23.8c-6.6-6.6-17.2-6.6-23.8,0L297.6,395.7L30.2,128.3
	c-6.6-6.6-17.2-6.6-23.8,0c-6.6,6.6-6.6,17.2,0,23.8l268.8,268.8L6.5,689.8c-6.6,6.6-6.6,17.2,0,23.8c3.2,3.4,7.6,5,11.9,5
	s8.6-1.7,11.9-5l267.4-267.3l267.4,267.3c3.2,3.2,7.6,5,11.9,5s8.6-1.6,11.9-5c6.6-6.6,6.6-17.2,0-23.8L320.1,420.9z"/>
</svg>
