<?xml version="1.0" encoding="utf-8"?>
<!-- Generator: Adobe Illustrator 18.0.0, SVG Export Plug-In . SVG Version: 6.00 Build 0)  -->
<!DOCTYPE svg PUBLIC "-//W3C//DTD SVG 1.1//EN" "http://www.w3.org/Graphics/SVG/1.1/DTD/svg11.dtd">
<svg version="1.1" id="Capa_1" xmlns="http://www.w3.org/2000/svg" xmlns:xlink="http://www.w3.org/1999/xlink" x="0px" y="0px"
	 viewBox="0 45.8 593.3 747.9" enable-background="new 0 45.8 593.3 747.9" xml:space="preserve">
<g>
	<path fill="#80D1E1" d="M422.7,238.4c-35-35-82.5-52.5-135.1-50c-97.5,5-175.1,85-175.1,182.6c0,42.5,15,85,42.5,117.6
		c40,47.5,60,107.6,60,167.6c0,0-5,27.5,15,27.5h125.1c20,0,15-27.5,15-27.5c0-60,22.5-120.1,65-172.6c25-32.5,40-72.5,40-112.6
		C480.2,318.4,460.2,270.9,422.7,238.4L422.7,238.4z M415.2,463.5c-45,57.5-70,122.6-70,187.6h-95c0-67.5-25-132.6-67.5-185.1
		c-22.5-27.5-35-62.5-35-97.5c0-80,65-147.6,145.1-150.1c42.5-2.5,80,12.5,110.1,42.5c30,27.5,45,67.5,45,107.6
		C447.7,403.4,437.7,436,415.2,463.5L415.2,463.5z"/>
	<path fill="#80D1E1" d="M507.7,133.3c-7.5-7.5-17.5-7.5-22.5,0l-40,37.5c-7.5,7.5-7.5,17.5,0,22.5c7.5,5,17.5,7.5,22.5,0l40-40
		C512.7,148.3,512.7,138.3,507.7,133.3L507.7,133.3z"/>
	<path fill="#80D1E1" d="M360.2,703.6H232.6c-10,0-15,7.5-15,15c0,10,7.5,15,15,15h127.6c10,0,15-7.5,15-15
		C377.7,711.1,370.2,703.6,360.2,703.6L360.2,703.6z"/>
	<path fill="#80D1E1" d="M337.7,763.6h-80c-10,0-15,7.5-15,15c0,10,7.5,15,15,15h80c10,0,15-7.5,15-15
		C352.7,771.1,345.2,763.6,337.7,763.6L337.7,763.6z"/>
	<path fill="#80D1E1" d="M297.6,133.3c10,0,15-7.5,15-15V60.8c0-10-7.5-15-15-15s-15,7.5-15,15v55
		C280.1,125.8,287.6,133.3,297.6,133.3L297.6,133.3z"/>
	<path fill="#80D1E1" d="M147.6,193.3c7.5-7.5,7.5-17.5,0-22.5l-37.5-37.5c-7.5-7.5-17.5-7.5-22.5,0c-5,7.5-7.5,17.5,0,22.5
		l37.5,37.5C132.6,200.8,142.6,200.8,147.6,193.3L147.6,193.3z"/>
	<path fill="#80D1E1" d="M577.8,325.9h-55c-10,0-15,7.5-15,15s7.5,15,15,15h55c10,0,15-7.5,15-15
		C595.3,333.4,587.8,325.9,577.8,325.9L577.8,325.9z"/>
	<path fill="#80D1E1" d="M70,325.9H15c-10,0-15,7.5-15,15s7.5,15,15,15h55c10,0,15-7.5,15-15C87.5,333.4,80,325.9,70,325.9L70,325.9
		z"/>
</g>
</svg>
