<?xml version="1.0" encoding="utf-8"?>
<!-- Generator: Adobe Illustrator 18.0.0, SVG Export Plug-In . SVG Version: 6.00 Build 0)  -->
<!DOCTYPE svg PUBLIC "-//W3C//DTD SVG 1.1//EN" "http://www.w3.org/Graphics/SVG/1.1/DTD/svg11.dtd">
<svg version="1.1"
	 id="Capa_1" xmlns:inkscape="http://www.inkscape.org/namespaces/inkscape" xmlns:sodipodi="http://sodipodi.sourceforge.net/DTD/sodipodi-0.dtd" xmlns:rdf="http://www.w3.org/1999/02/22-rdf-syntax-ns#" xmlns:svg="http://www.w3.org/2000/svg" xmlns:dc="http://purl.org/dc/elements/1.1/" xmlns:cc="http://creativecommons.org/ns#"
	 xmlns="http://www.w3.org/2000/svg" xmlns:xlink="http://www.w3.org/1999/xlink" x="0px" y="0px" viewBox="171.1 242.4 253 208.3"
	 enable-background="new 171.1 242.4 253 208.3" xml:space="preserve">
<g transform="translate(0,-972.36218)">
	<path fill="#80D1E1" d="M363.9,1214.7c-2.9,0.1-5.7,1.2-8.1,3c-6.6,4.9-7.9,14.1-3,20.7l26.7,35.8H186c-8.2,0-14.9,6.7-14.9,14.9
		c0,8.2,6.7,14.9,14.9,14.9h223.2c8.2,0,14.9-6.7,14.9-14.9c0-4.7-2.4-7.2-4.4-10.5l-43-57.9
		C373.6,1216.7,368.7,1214.5,363.9,1214.7z M186,1333.8c-8.2,0-14.9,6.7-14.9,14.9c0,4.7,2.4,7.2,4.4,10.5l43,57.9
		c3.1,4.1,8,6.3,12.8,6c2.9-0.1,5.7-1.2,8.1-3c6.6-4.9,7.9-14.1,3-20.7l-26.7-35.8h193.5c8.2,0,14.9-6.7,14.9-14.9
		c0-8.2-6.7-14.9-14.9-14.9L186,1333.8L186,1333.8z"/>
</g>
</svg>
