<?xml version="1.0" encoding="utf-8"?>
<!-- Generator: Adobe Illustrator 18.0.0, SVG Export Plug-In . SVG Version: 6.00 Build 0)  -->
<!DOCTYPE svg PUBLIC "-//W3C//DTD SVG 1.1//EN" "http://www.w3.org/Graphics/SVG/1.1/DTD/svg11.dtd">
<svg version="1.1" id="Capa_1" xmlns="http://www.w3.org/2000/svg" xmlns:xlink="http://www.w3.org/1999/xlink" x="0px" y="0px"
	 viewBox="0 0 26.2 30" enable-background="new 0 0 26.2 30" xml:space="preserve">
<path fill="#606060" d="M25.8,21.2l-3.2-1.9l2.7-1.6c0.4-0.2,0.6-0.8,0.3-1.2c-0.3-0.4-0.8-0.5-1.2-0.3l-3.6,2.1L14.9,15l5.8-3.3
	l3.6,2.1c0.1,0.1,0.3,0.1,0.4,0.1c0.3,0,0.6-0.1,0.8-0.4c0.2-0.4,0.1-1-0.3-1.2l-2.7-1.6l3.2-1.9c0.4-0.2,0.6-0.8,0.3-1.2
	c-0.2-0.4-0.8-0.6-1.2-0.3l-3.3,1.9l0-3.3c0-0.5-0.4-0.9-0.9-0.9c-0.5,0-0.9,0.4-0.9,0.9l0,4.3L14,13.4V6.7l3.6-2.1
	c0.4-0.2,0.6-0.8,0.4-1.2c-0.3-0.4-0.8-0.6-1.2-0.3L14,4.6V0.9C14,0.4,13.6,0,13.1,0c-0.5,0-0.9,0.4-0.9,0.9v3.7L9.4,3
	c-0.4-0.2-1-0.1-1.2,0.3c-0.3,0.4-0.1,1,0.3,1.2l3.7,2.1v6.7L6.3,10l0-4.2c0-0.5-0.4-0.9-0.9-0.9h0C5,4.9,4.6,5.3,4.6,5.8l0,3.2
	L1.3,7.1C0.9,6.9,0.4,7,0.1,7.5c-0.2,0.5-0.1,1,0.3,1.2l3.2,1.9l-2.8,1.7c-0.4,0.2-0.6,0.8-0.3,1.2c0.2,0.3,0.4,0.4,0.8,0.4
	c0.2,0,0.3,0,0.5-0.1l3.7-2.2l5.9,3.4l-5.9,3.4l-3.7-2.2c-0.4-0.3-1-0.1-1.2,0.3c-0.2,0.4-0.1,1,0.3,1.2l2.8,1.7l-3.2,1.9
	c-0.4,0.3-0.6,0.8-0.3,1.2C0.3,22.8,0.6,23,0.9,23c0.1,0,0.2,0,0.5-0.1L4.5,21l0,3.2c0,0.5,0.4,0.9,0.9,0.9h0c0.5,0,0.9-0.4,0.9-0.9
	l0-4.2l5.9-3.4v6.7l-3.7,2.1c-0.4,0.3-0.6,0.8-0.3,1.2C8.3,26.9,8.6,27,8.9,27c0.2,0,0.3,0,0.4-0.1l2.9-1.6v3.8
	c0,0.5,0.4,0.9,0.9,0.9c0.5,0,0.9-0.4,0.9-0.9v-3.7l2.8,1.6c0.1,0.1,0.3,0.1,0.4,0.1c0.4,0,0.6-0.1,0.8-0.5c0.2-0.4,0.1-1-0.4-1.2
	l-3.6-2v-6.8l5.8,3.3l0,4.3c0,0.5,0.4,0.9,0.9,0.9c0.5,0,0.9-0.4,0.9-0.9l0-3.3l3.3,1.9c0.1,0.1,0.3,0.1,0.5,0.1
	c0.3,0,0.6-0.1,0.8-0.4C26.4,22,26.2,21.5,25.8,21.2L25.8,21.2z M25.8,21.2"/>
</svg>
