<?xml version="1.0" encoding="utf-8"?>
<!-- Generator: Adobe Illustrator 18.0.0, SVG Export Plug-In . SVG Version: 6.00 Build 0)  -->
<!DOCTYPE svg PUBLIC "-//W3C//DTD SVG 1.1//EN" "http://www.w3.org/Graphics/SVG/1.1/DTD/svg11.dtd">
<svg version="1.1" id="Capa_1" xmlns="http://www.w3.org/2000/svg" xmlns:xlink="http://www.w3.org/1999/xlink" x="0px" y="0px"
	 viewBox="0 101.6 512 308.7" enable-background="new 0 101.6 512 308.7" xml:space="preserve">
<path fill="#606060" d="M475.6,238.1h-5v-83.4c0-29.3-23.8-53.1-53-53.1h-323c-29.3,0-53,23.8-53,53.1v83.4h-5
	C16.3,238.1,0,254.4,0,274.5v53.9c0,20.1,16.3,36.4,36.4,36.4h45V399c0,6.3,5.1,11.4,11.4,11.4c6.3,0,11.4-5.1,11.4-11.4v-34.2
	h303.8V399c0,6.3,5.1,11.4,11.4,11.4c6.3,0,11.4-5.1,11.4-11.4v-34.2h45c20.1,0,36.4-16.3,36.4-36.4v-53.9
	C512,254.4,495.7,238.1,475.6,238.1L475.6,238.1z M64.2,154.7c0-16.7,13.6-30.3,30.3-30.3h323c16.7,0,30.3,13.6,30.3,30.3v83.4
	h-14.6v-22.8c0-14.6-11.9-26.4-26.4-26.4H290.2c-14.6,0-26.4,11.9-26.4,26.4v22.8h-15.5v-22.8c0-14.6-11.9-26.4-26.4-26.4H105.2
	c-14.6,0-26.4,11.9-26.4,26.4v22.8H64.2L64.2,154.7L64.2,154.7z M286.5,238.1v-22.8c0-2,1.7-3.7,3.7-3.7h116.6c2,0,3.7,1.7,3.7,3.7
	v22.8H286.5z M101.5,238.1v-22.8c0-2,1.7-3.7,3.7-3.7h116.6c2,0,3.7,1.7,3.7,3.7v22.8H101.5L101.5,238.1z M489.2,328.4
	c0,7.5-6.1,13.6-13.6,13.6H36.4c-7.5,0-13.6-6.1-13.6-13.6v-53.9c0-7.5,6.1-13.6,13.6-13.6h439.2c7.5,0,13.6,6.1,13.6,13.6V328.4z"
	/>
</svg>
