<?xml version="1.0" encoding="utf-8"?>
<!-- Generator: Adobe Illustrator 18.0.0, SVG Export Plug-In . SVG Version: 6.00 Build 0)  -->
<!DOCTYPE svg PUBLIC "-//W3C//DTD SVG 1.1//EN" "http://www.w3.org/Graphics/SVG/1.1/DTD/svg11.dtd">
<svg version="1.1" id="Capa_1" xmlns="http://www.w3.org/2000/svg" xmlns:xlink="http://www.w3.org/1999/xlink" x="0px" y="0px"
	 viewBox="1.5 242.6 595.3 599.9" enable-background="new 1.5 242.6 595.3 599.9" xml:space="preserve">
<g>
	<g>
		<path fill="#606060" d="M365,842.5H198.1c-43.4,0-78.9-35.4-78.9-78.9V448.5c0-5,4-9,9-9h305.1c5,0,10.6,4,10.6,9v315.1
			C443.8,807.1,408.5,842.5,365,842.5z M137.3,457.5v306.1c0,33.5,27.2,60.7,60.7,60.7h167c33.5,0,60.7-27.2,60.7-60.7V457.5H137.3z
			"/>
		<path fill="#606060" d="M473,707.8h-38.3c-5,0-9-4-9-9s4-9,9-9H473c18.2,0,33.1-14.9,33.1-33.1v-85.1c0-18.2-14.9-33.1-33.1-33.1
			h-38.3c-5,0-9-4-9-9s4-9,9-9H473c28.2,0,51.1,23,51.1,51.1v85.1C524.2,684.9,501.2,707.8,473,707.8z"/>
		<g>
			<path fill="#606060" d="M206.2,758.5c-5,0-9-4-9-9V528.8c0-5,4-9,9-9s9,4,9,9v220.7C215.2,754.5,211.2,758.5,206.2,758.5z"/>
			<path fill="#606060" d="M356.8,758.5c-5,0-9-4-9-9V528.8c0-5,4-9,9-9c5,0,9,4,9,9v220.7C365.9,754.5,361.7,758.5,356.8,758.5z"/>
			<path fill="#606060" d="M281.5,758.5c-5,0-9-4-9-9V528.8c0-5,4-9,9-9c5,0,9,4,9,9v220.7C290.5,754.5,286.5,758.5,281.5,758.5z"/>
		</g>
	</g>
	<path fill="#606060" d="M429.6,457.5H133.4c-32.8,0-59.5-26.7-59.5-59.5s26.7-59.5,59.5-59.5h4.3c6.1-53.6,50.9-94.4,105.8-94.4
		c32.6,0,63.1,14.9,83.3,40.1c8.8-3.7,18-5.6,27.3-5.6c35.4,0,65,25.7,70.8,59.9h4.5c32.8,0,59.5,26.7,59.5,59.5
		S462.3,457.5,429.6,457.5z M133.4,356.7c-22.8,0-41.3,18.5-41.3,41.3s18.5,41.3,41.3,41.3h296.1c22.8,0,41.3-18.5,41.3-41.3
		s-18.5-41.3-41.3-41.3H417c-4.8,0-8.7-3.8-9-8.6c-1.5-28.7-25.1-51.2-53.8-51.2c-8.7,0-17.5,2.3-25.8,6.9c-4,2.2-9.2,1-11.9-2.8
		c-16.6-24.1-43.8-38.6-73.1-38.6c-47.9,0-86.7,37.6-88.3,85.6c-0.2,4.9-4.1,8.7-9,8.7L133.4,356.7L133.4,356.7z"/>
</g>
<path fill="#606060" d="M321.6,541.6l270.1-270.1c6.6-6.6,6.6-17.3,0-23.9c-6.6-6.6-17.3-6.6-23.9,0L299,516.3L30.3,247.6
	c-6.6-6.6-17.3-6.6-23.9,0c-6.6,6.6-6.6,17.3,0,23.9l270.1,270.1L6.5,811.8c-6.6,6.6-6.6,17.3,0,23.9c3.2,3.4,7.6,5,12,5
	s8.6-1.7,12-5l268.7-268.6l268.7,268.6c3.2,3.2,7.6,5,12,5c4.3,0,8.6-1.6,12-5c6.6-6.6,6.6-17.3,0-23.9L321.6,541.6z"/>
</svg>
