<?xml version="1.0" encoding="utf-8"?>
<!-- Generator: Adobe Illustrator 18.0.0, SVG Export Plug-In . SVG Version: 6.00 Build 0)  -->
<!DOCTYPE svg PUBLIC "-//W3C//DTD SVG 1.1//EN" "http://www.w3.org/Graphics/SVG/1.1/DTD/svg11.dtd">
<svg version="1.1" id="Capa_1" xmlns="http://www.w3.org/2000/svg" xmlns:xlink="http://www.w3.org/1999/xlink" x="0px" y="0px"
	 viewBox="63.3 0 385.4 512" enable-background="new 63.3 0 385.4 512" xml:space="preserve">
<g>
	<g>
		<path fill="#606060" d="M312.4,512H169.5c-37.2,0-67.5-30.3-67.5-67.5V174.8c0-4.3,3.5-7.8,7.8-7.8h261.1c4.3,0,9,3.5,9,7.8v269.8
			C379.9,481.7,349.6,512,312.4,512z M117.5,182.5v262c0,28.7,23.3,52,52,52h142.9c28.7,0,52-23.3,52-52v-262H117.5z"/>
		<path fill="#606060" d="M404.9,396.8h-32.8c-4.3,0-7.8-3.5-7.8-7.8s3.5-7.8,7.8-7.8h32.8c15.6,0,28.3-12.7,28.3-28.3v-72.8
			c0-15.6-12.7-28.3-28.3-28.3h-32.8c-4.3,0-7.8-3.5-7.8-7.8s3.5-7.8,7.8-7.8h32.8c24.2,0,43.8,19.7,43.8,43.8V353
			C448.7,377.1,429,396.8,404.9,396.8z"/>
		<g>
			<path fill="#606060" d="M176.5,440.1c-4.3,0-7.8-3.5-7.8-7.8V243.4c0-4.3,3.5-7.8,7.8-7.8s7.8,3.5,7.8,7.8v188.9
				C184.3,436.6,180.8,440.1,176.5,440.1z"/>
			<path fill="#606060" d="M305.4,440.1c-4.3,0-7.8-3.5-7.8-7.8V243.4c0-4.3,3.5-7.8,7.8-7.8s7.8,3.5,7.8,7.8v188.9
				C313.1,436.6,309.7,440.1,305.4,440.1z"/>
			<path fill="#606060" d="M240.9,440.1c-4.3,0-7.8-3.5-7.8-7.8V243.4c0-4.3,3.5-7.8,7.8-7.8s7.8,3.5,7.8,7.8v188.9
				C248.7,436.6,245.2,440.1,240.9,440.1z"/>
		</g>
	</g>
	<path fill="#606060" d="M367.7,182.5H114.2c-28.1,0-50.9-22.8-50.9-50.9s22.8-50.9,50.9-50.9h3.7C123.1,34.9,161.6,0,208.5,0
		c27.8,0,54,12.7,71.3,34.3c7.6-3.2,15.4-4.8,23.4-4.8c30.3,0,55.6,22,60.6,51.2h3.8c28.1,0,50.9,22.8,50.9,50.9
		S395.7,182.5,367.7,182.5z M114.2,96.3c-19.5,0-35.4,15.9-35.4,35.4S94.7,167,114.2,167h253.5c19.5,0,35.4-15.9,35.4-35.4
		s-15.9-35.4-35.4-35.4h-10.8c-4.1,0-7.5-3.2-7.7-7.4c-1.3-24.6-21.5-43.9-46-43.9c-7.5,0-15,2-22.1,5.9c-3.5,1.9-7.9,0.9-10.1-2.4
		c-14.2-20.7-37.5-33-62.5-33c-41.1,0-74.3,32.2-75.6,73.2c-0.1,4.2-3.6,7.5-7.8,7.5H114.2z"/>
</g>
</svg>
