<?xml version="1.0" encoding="iso-8859-1"?>
<!-- Generator: Adobe Illustrator 18.0.0, SVG Export Plug-In . SVG Version: 6.00 Build 0)  -->
<!DOCTYPE svg PUBLIC "-//W3C//DTD SVG 1.1//EN" "http://www.w3.org/Graphics/SVG/1.1/DTD/svg11.dtd">
<svg version="1.1" id="Layer_1" xmlns="http://www.w3.org/2000/svg" xmlns:xlink="http://www.w3.org/1999/xlink" x="0px" y="0px"
	 viewBox="185.291 374.5 44.302 45" style="enable-background:new 185.291 374.5 44.302 45;" xml:space="preserve">
<g transform="translate(1 1)">
	<path style="fill:#606060;" d="M211.291,418.5h-12.879c-0.853,0-1.629-0.466-2.017-1.241c-0.078-0.233-0.31-0.388-0.543-0.388
		l-9.853-0.698c-1.086-0.233-1.707-0.931-1.707-1.862c0-1.164,0.931-2.017,2.017-2.017h37.784c1.164,0,2.017,0.931,2.017,2.017
		c0,0.931-0.621,1.629-1.707,1.862h-0.078l-10.552,0.698c-0.233,0-0.466,0.155-0.543,0.388
		C212.92,418.034,212.144,418.5,211.291,418.5z M186.23,414.621l9.698,0.698c0.776,0.078,1.474,0.543,1.862,1.241
		c0.155,0.233,0.388,0.388,0.621,0.388h12.957c0.233,0,0.466-0.155,0.621-0.388c0.388-0.698,1.086-1.164,1.862-1.241l10.397-0.698
		c0.388-0.078,0.388-0.233,0.388-0.31c0-0.233-0.233-0.466-0.466-0.466h-37.862c-0.233,0-0.466,0.233-0.466,0.466
		C185.842,414.388,185.842,414.543,186.23,414.621z"/>
	<path style="fill:#606060;" d="M205.239,387.466c-0.233,0-0.388-0.078-0.543-0.233c-1.164-1.241-1.784-2.483-1.784-3.724
		c0-1.241,0.621-2.405,1.784-3.569c0.853-0.776,1.319-1.629,1.319-2.483c0-0.853-0.466-1.707-1.319-2.638
		c-0.31-0.31-0.31-0.776,0-1.086c0.31-0.31,0.776-0.31,1.086,0c1.241,1.164,1.784,2.483,1.784,3.724
		c0,1.241-0.621,2.483-1.784,3.569c-0.853,0.776-1.319,1.629-1.319,2.483c0,0.853,0.466,1.707,1.319,2.638
		c0.31,0.31,0.31,0.776,0,1.086C205.627,387.388,205.472,387.466,205.239,387.466z"/>
	<path style="fill:#606060;" d="M213.773,387.466c-0.233,0-0.388-0.078-0.543-0.233c-1.164-1.241-1.784-2.483-1.784-3.724
		c0-1.241,0.621-2.405,1.784-3.569c0.853-0.853,1.319-1.629,1.319-2.483c0-0.853-0.466-1.707-1.319-2.638
		c-0.31-0.31-0.31-0.776,0-1.086s0.776-0.31,1.086,0c1.241,1.164,1.784,2.405,1.784,3.724c0,1.241-0.621,2.483-1.862,3.569
		c-0.853,0.776-1.319,1.629-1.319,2.483c0,0.853,0.466,1.707,1.319,2.638c0.31,0.31,0.31,0.776,0,1.086
		C214.161,387.388,213.928,387.466,213.773,387.466z"/>
	<path style="fill:#606060;" d="M197.48,387.466c-0.233,0-0.388-0.078-0.543-0.233c-1.164-1.241-1.784-2.483-1.784-3.724
		c0-1.241,0.621-2.405,1.784-3.569c0.853-0.853,1.319-1.629,1.319-2.483c0-0.853-0.466-1.707-1.319-2.638
		c-0.31-0.31-0.31-0.776,0-1.086c0.31-0.31,0.776-0.31,1.086,0c1.241,1.164,1.784,2.405,1.784,3.724
		c0,1.241-0.621,2.483-1.862,3.569c-0.853,0.776-1.319,1.629-1.319,2.483c0,0.853,0.466,1.707,1.319,2.638
		c0.31,0.31,0.31,0.776,0,1.086C197.868,387.388,197.635,387.466,197.48,387.466z"/>
	<path style="fill:#606060;" d="M205.239,413.845c-16.914,0-19.319-10.94-19.397-21.724c0-0.388,0.155-0.776,0.466-1.086
		s0.698-0.466,1.086-0.466h35.69c0.388,0,0.776,0.155,1.086,0.466c0.31,0.31,0.466,0.698,0.466,1.086
		C224.558,402.905,222.153,413.845,205.239,413.845z M187.394,392.121c0.078,10.474,2.328,20.172,17.845,20.172
		s17.767-9.698,17.845-20.172H187.394z"/>
	<path style="fill:#606060;" d="M218.118,408.569l1.241-1.474c3.181-3.957,3.724-9.621,3.802-14.198v-0.543l0.621-0.233h0.155
		c2.56,0,4.655,2.793,4.655,6.207c0,4.422-2.638,9.233-8.534,10.009L218.118,408.569z M224.635,393.828
		c-0.155,4.034-0.621,8.69-2.948,12.491c3.879-1.319,5.276-4.966,5.276-7.991C226.963,396.155,225.954,394.293,224.635,393.828z"/>
	<path style="fill:#606060;" d="M200.584,409.966c-0.078,0-0.078,0-0.155,0c-6.129-1.086-9.466-4.578-10.707-11.483
		c-0.078-0.388,0.233-0.853,0.621-0.931c0.388-0.078,0.853,0.233,0.931,0.621c1.164,6.207,3.957,9.31,9.466,10.241
		c0.388,0.078,0.698,0.466,0.621,0.931C201.282,409.733,200.972,409.966,200.584,409.966z"/>
</g>
</svg>
