<?xml version="1.0" encoding="iso-8859-1"?>
<!-- Generator: Adobe Illustrator 18.0.0, SVG Export Plug-In . SVG Version: 6.00 Build 0)  -->
<!DOCTYPE svg PUBLIC "-//W3C//DTD SVG 1.1//EN" "http://www.w3.org/Graphics/SVG/1.1/DTD/svg11.dtd">
<svg version="1.1" id="Capa_1" xmlns="http://www.w3.org/2000/svg" xmlns:xlink="http://www.w3.org/1999/xlink" x="0px" y="0px"
	 viewBox="0 0 43.314 45" style="enable-background:new 0 0 43.314 45;" xml:space="preserve">
<g>
	<path style="fill:#606060;" d="M19.02,7.622c1.69,0.421,3.277,0.817,4.962,1.237c-0.511,0.462-0.951,0.875-1.414,1.262
		c-0.086,0.072-0.269,0.06-0.399,0.037c-0.154-0.027-0.298-0.107-0.472-0.175c-0.284,1.512-0.562,2.968-0.823,4.426
		c-0.023,0.127,0.082,0.272,0.096,0.411c0.035,0.33,0.19,0.743,0.052,0.979c-0.837,1.429-0.949,3.042-1.253,4.602
		c-0.514,2.638-0.984,5.285-1.47,7.929c-0.035,0.191-0.053,0.385-0.088,0.644c1.595-0.857,3.134-1.682,4.672-2.509
		c0.683-0.367,1.362-0.741,2.047-1.106c0.734-0.391,1.327-0.259,1.82,0.406c1.582,2.138,3.162,4.278,4.741,6.419
		c0.137,0.186,0.263,0.381,0.377,0.582c0.406,0.714,0.373,1.374-0.086,1.939c-0.439,0.54-1.247,0.81-1.926,0.522
		c-0.436-0.185-0.883-0.476-1.177-0.839c-1.092-1.348-2.12-2.747-3.179-4.122c-0.14-0.182-0.287-0.398-0.482-0.485
		c-0.191-0.086-0.493-0.115-0.666-0.021c-0.973,0.526-1.924,1.092-2.875,1.658c-0.14,0.084-0.236,0.243-0.352,0.367
		c0.132,0.112,0.246,0.266,0.398,0.33c1.883,0.796,3.761,1.605,5.663,2.355c1.033,0.407,1.839,1.01,2.496,1.926
		c1.349,1.879,2.792,3.689,4.19,5.533c0.158,0.209,0.307,0.433,0.412,0.672c0.28,0.637,0.285,1.269-0.234,1.791
		c-0.541,0.544-1.215,0.796-1.939,0.451c-0.461-0.219-0.928-0.533-1.247-0.923c-1.486-1.816-2.918-3.676-4.379-5.513
		c-0.127-0.16-0.307-0.302-0.492-0.388c-2.556-1.192-5.104-2.403-7.687-3.535c-0.598-0.262-1.318-0.244-1.979-0.368
		c-0.291-0.055-0.581-0.124-0.861-0.22c-0.928-0.319-1.646-0.846-2.218-1.703c-1.201-1.798-2.528-3.512-3.802-5.262
		c-0.233-0.32-0.492-0.628-0.677-0.975c-0.636-1.191-0.183-2.328,1.104-2.769c1.683-0.577,3.372-1.139,5.065-1.687
		c0.355-0.115,0.583-0.295,0.744-0.64c0.945-2.015,1.912-4.021,2.872-6.03c0.18-0.377,0.364-0.742,0.861-0.799
		c0.084-0.01,0.189-0.211,0.21-0.336c0.202-1.221,0.392-2.443,0.573-3.667c0.016-0.108-0.041-0.239-0.095-0.344
		C19.769,9.028,19.42,8.376,19.02,7.622z M14.043,24.782c1.03,1.543,2.028,3.037,3.099,4.641c0.414-2.619,0.804-5.084,1.193-7.549
		c-0.158,0.172-0.276,0.356-0.335,0.557c-0.182,0.617-0.577,0.962-1.189,1.181C15.888,23.942,15,24.371,14.043,24.782z"/>
	<path style="fill:#606060;" d="M43.298,14.086C28.842,9.77,14.439,5.47,0,1.16C0.035,0.779,0.067,0.422,0.105,0
		c0.71,0.206,1.383,0.396,2.053,0.596c13.571,4.059,27.141,8.119,40.714,12.173c0.311,0.093,0.488,0.209,0.433,0.569
		C43.27,13.562,43.298,13.795,43.298,14.086z"/>
	<path style="fill:#606060;" d="M10.731,19.239c-0.006,1.647-1.322,2.959-2.96,2.952c-1.627-0.007-2.968-1.36-2.948-2.976
		c0.021-1.644,1.349-2.967,2.971-2.957C9.431,16.269,10.738,17.594,10.731,19.239z"/>
	<path style="fill:#606060;" d="M24.984,7.029c-0.802-0.011-1.45-0.663-1.442-1.45c0.009-0.827,0.659-1.459,1.493-1.454
		c0.83,0.005,1.484,0.669,1.461,1.482C26.472,6.443,25.836,7.041,24.984,7.029z"/>
	<path style="fill:#606060;" d="M19.364,4.38c-0.006-0.84,0.618-1.481,1.447-1.486c0.823-0.005,1.472,0.646,1.468,1.471
		c-0.004,0.808-0.628,1.443-1.431,1.457C20.014,5.836,19.37,5.21,19.364,4.38z"/>
</g>
<g>
</g>
<g>
</g>
<g>
</g>
<g>
</g>
<g>
</g>
<g>
</g>
</svg>
