<?xml version="1.0" encoding="iso-8859-1"?>
<!-- Generator: Adobe Illustrator 18.0.0, SVG Export Plug-In . SVG Version: 6.00 Build 0)  -->
<!DOCTYPE svg PUBLIC "-//W3C//DTD SVG 1.1//EN" "http://www.w3.org/Graphics/SVG/1.1/DTD/svg11.dtd">
<svg version="1.1" id="Capa_1" xmlns="http://www.w3.org/2000/svg" xmlns:xlink="http://www.w3.org/1999/xlink" x="0px" y="0px"
	 viewBox="0 0 512 512" style="enable-background:new 0 0 512 512;" xml:space="preserve">
<path style="fill:#606060;" d="M275.285,255.987L506.512,24.759c5.687-5.687,5.687-14.807,0-20.494
	c-5.687-5.687-14.807-5.687-20.494,0L256,234.283L25.982,4.265c-5.687-5.687-14.807-5.687-20.494,0
	c-5.687,5.687-5.687,14.807,0,20.494l231.228,231.228L5.595,487.214c-5.687,5.687-5.687,14.807,0,20.494
	C8.385,510.605,12.14,512,15.788,512s7.404-1.502,10.193-4.292L256,277.792l230.018,229.916c2.79,2.79,6.545,4.292,10.193,4.292
	s7.404-1.395,10.193-4.292c5.687-5.687,5.687-14.807,0-20.494L275.285,255.987z"/>
</svg>
