<?xml version="1.0" encoding="utf-8"?>
<!-- Generator: Adobe Illustrator 18.0.0, SVG Export Plug-In . SVG Version: 6.00 Build 0)  -->
<!DOCTYPE svg PUBLIC "-//W3C//DTD SVG 1.1//EN" "http://www.w3.org/Graphics/SVG/1.1/DTD/svg11.dtd">
<svg version="1.1" id="Capa_1" xmlns="http://www.w3.org/2000/svg" xmlns:xlink="http://www.w3.org/1999/xlink" x="0px" y="0px"
	 viewBox="504.2 2146 68 44.8" enable-background="new 504.2 2146 68 44.8" xml:space="preserve">
<g>
	<path fill="#606060" d="M571,2183.6h-1.2c-0.6-16.5-13.9-29.8-30.4-30.4v-1.2h0.6c1.7,0,3-1.4,3-3c0-1.7-1.4-3-3-3h-3.6
		c-1.7,0-3,1.4-3,3c0,1.7,1.4,3,3,3h0.6v1.2c-16.5,0.6-29.8,13.9-30.4,30.4h-1.2c-0.7,0-1.2,0.5-1.2,1.2s0.5,1.2,1.2,1.2h1.5
		l0.5,1.6c0.5,1.8,2.4,3.2,4.2,3.2h53.2c1.9,0,3.7-1.4,4.2-3.2l0.5-1.6h1.5c0.7,0,1.2-0.5,1.2-1.2
		C572.3,2184.2,571.7,2183.6,571,2183.6L571,2183.6z M535.8,2149c0-0.3,0.3-0.6,0.6-0.6h3.6c0.3,0,0.6,0.3,0.6,0.6s-0.3,0.6-0.6,0.6
		h-3.6C536,2149.6,535.8,2149.3,535.8,2149L535.8,2149z M566.7,2187c-0.2,0.8-1.1,1.4-1.9,1.4h-53.2c-0.8,0-1.7-0.7-1.9-1.4l0,0
		l-0.3-0.9h48.3c0.7,0,1.2-0.5,1.2-1.2c0-0.7-0.5-1.2-1.2-1.2H509c0.6-15.5,13.5-28,29.2-28s28.5,12.4,29.2,28h-4.8
		c-0.7,0-1.2,0.5-1.2,1.2c0,0.7,0.5,1.2,1.2,1.2h4.5L566.7,2187L566.7,2187L566.7,2187z"/>
	<path fill="#606060" d="M552.7,2162.3c-0.6-0.4-1.3-0.2-1.7,0.4c-0.4,0.6-0.2,1.3,0.4,1.7c2.3,1.5,4.4,3.4,6,5.5
		c0.2,0.3,0.6,0.5,1,0.5c0.3,0,0.5-0.1,0.7-0.3c0.5-0.4,0.6-1.2,0.2-1.7C557.5,2166,555.2,2164,552.7,2162.3L552.7,2162.3z"/>
	<path fill="#606060" d="M548.4,2160.1c-1-0.4-2-0.8-3-1c-0.6-0.2-1.3,0.2-1.5,0.8c-0.2,0.6,0.2,1.3,0.8,1.5
		c0.9,0.3,1.9,0.6,2.8,0.9c0.2,0.1,0.3,0.1,0.5,0.1c0.5,0,0.9-0.3,1.1-0.8C549.3,2161.1,549,2160.3,548.4,2160.1L548.4,2160.1z"/>
</g>
</svg>
