<?xml version="1.0" encoding="utf-8"?>
<!-- Generator: Adobe Illustrator 18.0.0, SVG Export Plug-In . SVG Version: 6.00 Build 0)  -->
<!DOCTYPE svg PUBLIC "-//W3C//DTD SVG 1.1//EN" "http://www.w3.org/Graphics/SVG/1.1/DTD/svg11.dtd">
<svg version="1.1" id="Capa_1" xmlns="http://www.w3.org/2000/svg" xmlns:xlink="http://www.w3.org/1999/xlink" x="0px" y="0px"
	 viewBox="0 0 26 30" enable-background="new 0 0 26 30" xml:space="preserve">
<g>
	<path fill="#606060" d="M22.4,12.3c0.8,0,1.5-0.7,1.5-1.5c0-0.8-0.7-1.5-1.5-1.5c-0.8,0-1.5,0.7-1.5,1.5
		C20.9,11.7,21.5,12.3,22.4,12.3L22.4,12.3z M22.4,10.3c0.3,0,0.6,0.3,0.6,0.6c0,0.3-0.3,0.6-0.6,0.6c-0.3,0-0.6-0.3-0.6-0.6
		C21.8,10.5,22.1,10.3,22.4,10.3L22.4,10.3z M22.4,10.3"/>
	<path fill="#606060" d="M7.7,19.1c0,0.3-0.2,0.5-0.5,0.5c-0.3,0-0.5-0.2-0.5-0.5c0-0.3,0.2-0.5,0.5-0.5C7.5,18.7,7.7,18.9,7.7,19.1
		L7.7,19.1z M7.7,19.1"/>
	<path fill="#606060" d="M13,27.5c4.6,0,8.3-3.7,8.3-8.3c0-4.6-3.7-8.3-8.3-8.3s-8.3,3.7-8.3,8.3C4.7,23.8,8.4,27.5,13,27.5L13,27.5
		z M13,11.8c4.1,0,7.4,3.3,7.4,7.4s-3.3,7.4-7.4,7.4s-7.4-3.3-7.4-7.4S8.9,11.8,13,11.8L13,11.8z M13,11.8"/>
	<path fill="#606060" d="M24.2,0H1.7C0.8,0,0,0.8,0,1.7v26.5c0,1,0.7,1.8,1.7,1.8h22.5c1,0,1.8-0.8,1.8-1.8V1.7
		C26,0.8,25.2,0,24.2,0L24.2,0z M25.1,28.2c0,0.5-0.4,0.9-0.9,0.9H1.7c-0.5,0-0.8-0.4-0.8-0.9v-20h24.1V28.2z M25.1,7.2H0.9V1.7
		c0-0.4,0.3-0.8,0.8-0.8h22.5c0.5,0,0.9,0.4,0.9,0.8V7.2z M25.1,7.2"/>
	<path fill="#606060" d="M22.1,2.6h-3.6c-1,0-1.8,0.8-1.8,1.8c0,1,0.8,1.7,1.8,1.7h3.6c1,0,1.8-0.7,1.8-1.7
		C23.9,3.3,23.1,2.6,22.1,2.6L22.1,2.6z M22.1,5.1h-3.6c-0.5,0-0.9-0.3-0.9-0.8c0-0.5,0.3-0.9,0.9-0.9h3.6c0.5,0,0.9,0.3,0.9,0.9
		C22.9,4.8,22.6,5.1,22.1,5.1L22.1,5.1z M22.1,5.1"/>
	<path fill="#606060" d="M12.6,14c0.3,0,0.5-0.2,0.4-0.5c0-0.3-0.2-0.5-0.5-0.4c-2.6,0.2-4.8,2-5.5,4.5c-0.1,0.3,0.1,0.5,0.3,0.6
		c0,0,0.1,0,0.1,0c0.2,0,0.4-0.1,0.5-0.4C8.5,15.6,10.3,14.1,12.6,14L12.6,14z M12.6,14"/>
</g>
</svg>
