<?xml version="1.0" encoding="iso-8859-1"?>
<!-- Generator: Adobe Illustrator 19.0.0, SVG Export Plug-In . SVG Version: 6.00 Build 0)  -->
<svg xmlns="http://www.w3.org/2000/svg" xmlns:xlink="http://www.w3.org/1999/xlink" version="1.1" id="Capa_1" x="0px" y="0px" viewBox="0 0 480 480" style="enable-background:new 0 0 480 480;" xml:space="preserve" width="512px" height="512px">
<path id="XMLID_1099_" d="M355.406,374.027c-3.451-4.312-2.753-10.604,1.559-14.056c3.942-3.154,7.32-6.908,10.042-11.156  c1.838-2.87,5.012-4.606,8.42-4.606h0.421c3.408,0,6.582,1.736,8.42,4.606C392.767,362.08,407.216,370,422.922,370  c15.709,0,30.16-7.92,38.656-21.185c2.979-4.65,9.165-6.003,13.814-3.027c4.651,2.979,6.006,9.164,3.027,13.814  C466.228,378.637,445.481,390,422.922,390c-18.087,0-35.011-7.308-47.293-20.017c-1.93,1.989-3.988,3.86-6.166,5.604  C365.15,379.038,358.857,378.341,355.406,374.027z M241.1,258.169c15.385-1.704,29.412-8.676,39.972-19.604  c12.281,12.702,29.201,20.006,47.283,20.006c18.083,0,35.002-7.303,47.284-20.007c12.281,12.704,29.2,20.007,47.284,20.007  c22.56,0,43.306-11.363,55.498-30.397c2.979-4.65,1.624-10.836-3.027-13.814c-4.649-2.975-10.835-1.624-13.814,3.027  c-8.497,13.265-22.947,21.185-38.656,21.185c-15.706,0-30.155-7.92-38.653-21.185c-1.838-2.87-5.012-4.606-8.42-4.606h-0.421  c-3.409,0-6.582,1.736-8.42,4.606c-8.498,13.265-22.947,21.185-38.653,21.185c-15.706,0-30.155-7.92-38.653-21.185  c-1.838-2.87-5.012-4.606-8.42-4.606h-0.421c-3.409,0-6.582,1.736-8.421,4.606c-7.531,11.758-19.756,19.377-33.54,20.903  c-5.489,0.608-9.446,5.551-8.839,11.04C230.668,254.819,235.605,258.773,241.1,258.169z M319.999,80c0-5.522,4.477-10,10-10h21.004  c1.299-6.375,3.815-12.313,7.294-17.56l-14.867-14.866c-3.905-3.905-3.906-10.237,0-14.143c3.905-3.904,10.237-3.904,14.142,0  l14.867,14.867c5.247-3.479,11.185-5.995,17.56-7.294V10c0-5.522,4.477-10,10-10c5.523,0,10,4.478,10,10v21.005  c6.375,1.299,12.313,3.814,17.56,7.294l14.867-14.867c3.905-3.903,10.236-3.903,14.142,0c3.905,3.905,3.905,10.237,0,14.143  L441.701,52.44c3.479,5.247,5.995,11.185,7.294,17.56h21.004c5.523,0,10,4.478,10,10s-4.477,10-10,10h-21.004  c-1.299,6.375-3.815,12.313-7.294,17.56l14.867,14.866c3.905,3.905,3.906,10.237,0,14.143c-3.905,3.904-10.237,3.904-14.142,0  l-14.867-14.867c-5.247,3.479-11.185,5.995-17.56,7.294V150c0,5.522-4.477,10-10,10c-5.523,0-10-4.478-10-10v-21.005  c-6.375-1.299-12.313-3.814-17.56-7.294l-14.867,14.867c-3.904,3.905-10.236,3.904-14.142,0c-3.905-3.905-3.905-10.237,0-14.143  l14.867-14.866c-3.479-5.247-5.995-11.185-7.294-17.56h-21.004C324.476,90,319.999,85.522,319.999,80z M369.999,80  c0,16.542,13.458,30,30,30s30-13.458,30-30s-13.458-30-30-30S369.999,63.458,369.999,80z M479.999,470c0,5.522-4.477,10-10,10  H70.027c-0.01,0-0.019,0-0.029,0s-0.02,0-0.029,0H10c-5.523,0-10-4.478-10-10s4.477-10,10-10h55.679l57.616-61.217  C62.876,375.016,20,316.088,20,247.333v-143.19L2.929,87.071c-3.905-3.905-3.905-10.237,0-14.143c3.905-3.904,10.237-3.904,14.143,0  L404.141,460h65.858C475.522,460,479.999,464.478,479.999,470z M230.217,314.359l-69.591,73.94c7.186,1.12,14.545,1.7,22.04,1.7  h123.192L230.217,314.359z M138.229,382.916l77.84-82.705L100,184.142v38.636c0,18.549,4.203,36.286,12.493,52.719  c2.488,4.931,0.507,10.944-4.424,13.433c-4.931,2.485-10.945,0.506-13.432-4.425C84.924,265.252,80,244.484,80,222.777v-58.636  l-40-39.999v123.19C40,310.491,81.253,364.195,138.229,382.916z M375.857,460l-49.999-50H182.666c-13.15,0-25.947-1.57-38.2-4.529  L93.144,460H375.857z M422.922,324.286c22.56,0,43.306-11.364,55.498-30.398c2.979-4.65,1.623-10.836-3.027-13.814  c-4.65-2.977-10.835-1.623-13.814,3.027c-8.497,13.266-22.947,21.186-38.656,21.186c-15.706,0-30.156-7.92-38.652-21.186  c-1.838-2.87-5.012-4.606-8.421-4.606h-0.421c-3.409,0-6.583,1.736-8.421,4.606c-8.497,13.266-22.946,21.186-38.652,21.186  c-9.057,0-17.812-2.637-25.321-7.626c-4.601-3.055-10.807-1.804-13.863,2.795c-3.057,4.601-1.805,10.807,2.795,13.863  c10.799,7.175,23.383,10.968,36.39,10.968c18.083,0,35.002-7.303,47.284-20.008C387.919,316.983,404.838,324.286,422.922,324.286z   M144.281,337.034c3.15,0,6.251-1.485,8.197-4.261c3.17-4.522,2.074-10.759-2.449-13.929c-1.337-0.938-2.666-1.911-3.95-2.894  c-4.386-3.357-10.662-2.521-14.019,1.864c-3.356,4.386-2.522,10.662,1.864,14.019c1.504,1.151,3.061,2.291,4.625,3.388  C140.296,336.446,142.298,337.034,144.281,337.034z" fill="#606060"/>
<g>
</g>
<g>
</g>
<g>
</g>
<g>
</g>
<g>
</g>
<g>
</g>
<g>
</g>
<g>
</g>
<g>
</g>
<g>
</g>
<g>
</g>
<g>
</g>
<g>
</g>
<g>
</g>
<g>
</g>
</svg>
