<?xml version="1.0" encoding="utf-8"?>
<!-- Generator: Adobe Illustrator 18.0.0, SVG Export Plug-In . SVG Version: 6.00 Build 0)  -->
<!DOCTYPE svg PUBLIC "-//W3C//DTD SVG 1.1//EN" "http://www.w3.org/Graphics/SVG/1.1/DTD/svg11.dtd">
<svg version="1.1" id="Capa_1" xmlns="http://www.w3.org/2000/svg" xmlns:xlink="http://www.w3.org/1999/xlink" x="0px" y="0px"
	 viewBox="48.4 53.8 595.4 734.2" enable-background="new 48.4 53.8 595.4 734.2" xml:space="preserve">
<g>
	<path fill="#606060" d="M447.2,788.1H168.8c-5.6,0-10.5-4.2-11-9.9l-57.6-504.1c-0.3-3.2,0.6-6.3,2.7-8.7c2.2-2.4,5.2-3.7,8.3-3.7
		h393.7c3.2,0,6.2,1.3,8.3,3.7c2.2,2.3,3.2,5.4,2.7,8.7l-57.6,504.1C457.6,783.9,452.8,788.1,447.2,788.1z M178.7,765.8h258.6
		L492.3,284H123.6L178.7,765.8z"/>
	<path fill="#606060" d="M492.2,393.7H125.4c-6.2,0-11.2-5-11.2-11.2s5-11.2,11.2-11.2h366.8c6.2,0,11.2,5,11.2,11.2
		S498.4,393.7,492.2,393.7z"/>
	<path fill="#606060" d="M293.2,551.2h-68.7c-6.2,0-11.2-5-11.2-11.2v-68.7c0-6.2,5-11.2,11.2-11.2h68.7c6.2,0,11.2,5,11.2,11.2V540
		C304.2,546.3,299.3,551.2,293.2,551.2z M235.5,528.9H282v-46.5h-46.5V528.9z"/>
	<path fill="#606060" d="M373.3,691c-2,0-4-0.6-5.7-1.6l-58.8-35.9c-5.3-3.2-6.9-10-3.7-15.3l35.7-58.7c3.2-5.3,10-6.9,15.3-3.7
		l58.7,35.7c5.3,3.2,6.9,10,3.7,15.3l-35.7,58.7C380.8,689.1,377,691,373.3,691z M330,640.4l39.7,24.1l24.1-39.7l-39.7-24.1
		L330,640.4z"/>
	<path fill="#606060" d="M505.4,407.6c-4.4,0-8.7-0.1-13-0.6c-6.2-0.6-10.6-6-10-12.2c0.6-6.2,5.7-10.3,12.2-10
		c3.6,0.3,7.3,0.4,10.9,0.4c64,0,116.2-52.1,116.2-116s-52.1-116.2-116.2-116.2s-116,52.1-116,116.2c0,6.2-5,11.2-11.2,11.2
		c-6.2,0-11.2-5-11.2-11.2c0-76.3,62.1-138.4,138.4-138.4s138.4,62.1,138.4,138.4C643.6,345.5,581.7,407.6,505.4,407.6z"/>
	<path fill="#606060" d="M224.3,280.4c-5.3,0-10-3.9-10.9-9.2l-33.6-195H59.5c-6.2,0-11.2-5-11.2-11.2c0-6.2,5-11.2,11.2-11.2h129.6
		c5.4,0,10,3.9,10.9,9.2l35.3,204.4c1,6-3,11.8-9,12.9C225.6,280.4,225,280.4,224.3,280.4z"/>
	<path fill="#606060" d="M504.8,284c-6.2,0-11.2-5-11.2-11.2V142c0-6.2,5-11.2,11.2-11.2c6.2,0,11.2,5,11.2,11.2v130.8
		C515.9,279,511,284,504.8,284z"/>
	<path fill="#606060" d="M595,370c-2.9,0-5.7-1.1-7.9-3.3L408,187.5c-4.3-4.3-4.3-11.3,0-15.8c4.3-4.4,11.3-4.3,15.8,0L603.1,351
		c4.3,4.3,4.3,11.3,0,15.8C600.6,368.9,597.9,370,595,370z"/>
	<path fill="#606060" d="M504.8,284c-2.9,0-5.7-1.1-7.9-3.3c-4.3-4.3-4.3-11.3,0-15.8l90.6-90.6c4.3-4.3,11.3-4.3,15.8,0
		c4.3,4.3,4.3,11.3,0,15.8l-90.8,90.8C510.4,283,507.7,284,504.8,284z"/>
	<path fill="#606060" d="M632.6,280.4H504.8c-6.2,0-11.2-5-11.2-11.2s5-11.2,11.2-11.2h127.8c6.2,0,11.2,5,11.2,11.2
		S638.8,280.4,632.6,280.4z"/>
</g>
</svg>
