<?xml version="1.0" encoding="utf-8"?>
<!-- Generator: Adobe Illustrator 18.0.0, SVG Export Plug-In . SVG Version: 6.00 Build 0)  -->
<!DOCTYPE svg PUBLIC "-//W3C//DTD SVG 1.1//EN" "http://www.w3.org/Graphics/SVG/1.1/DTD/svg11.dtd">
<svg version="1.1" id="Capa_1" xmlns="http://www.w3.org/2000/svg" xmlns:xlink="http://www.w3.org/1999/xlink" x="0px" y="0px"
	 viewBox="0 0 46.2 45" enable-background="new 0 0 46.2 45" xml:space="preserve">
<g>
	<path fill="#606060" d="M42.5,28.8H31.4l2.7-1.5h8.4c0.4,0,0.7-0.3,0.7-0.7c0-0.4-0.3-0.7-0.7-0.7h-8.6c-0.1,0-0.2,0-0.4,0.1
		l-5.4,2.9c0,0,0,0,0,0l-5.1,2.8L18,28.9c0,0,0,0,0,0l-5.4-2.9c-0.1-0.1-0.2-0.1-0.4-0.1H3.7c-0.4,0-0.7,0.3-0.7,0.7
		c0,0.4,0.3,0.7,0.7,0.7h8.4l2.7,1.5H3.7c-2,0-3.7,1.7-3.7,3.7c0,2,1.7,3.7,3.7,3.7h38.8c2,0,3.7-1.7,3.7-3.7
		C46.2,30.4,44.5,28.8,42.5,28.8L42.5,28.8z M42.5,34.7H3.7c-1.2,0-2.2-1-2.2-2.2c0-1.2,1-2.2,2.2-2.2h13.8l5.2,2.9
		c0.1,0.1,0.2,0.1,0.4,0.1c0.1,0,0.2,0,0.4-0.1l5.2-2.9h13.8c1.2,0,2.2,1,2.2,2.2C44.7,33.7,43.7,34.7,42.5,34.7L42.5,34.7z
		 M42.5,34.7"/>
	<path fill="#606060" d="M33.3,41.3c0-0.4-0.3-0.7-0.7-0.7c-0.4,0-0.7,0.3-0.7,0.7c0,0.4,0.3,0.7,0.7,0.7
		C33,42.1,33.3,41.7,33.3,41.3L33.3,41.3z M33.3,41.3"/>
	<path fill="#606060" d="M42.5,37.6h-30c-0.4,0-0.7,0.3-0.7,0.7c0,0.4,0.3,0.7,0.7,0.7h29.2c-0.4,2.5-2.5,4.4-5.1,4.4h-27
		c-2.6,0-4.7-1.9-5.1-4.4h5.1c0.4,0,0.7-0.3,0.7-0.7c0-0.4-0.3-0.7-0.7-0.7H3.7c-0.4,0-0.7,0.3-0.7,0.7c0,3.7,3,6.6,6.6,6.6h27
		c3.7,0,6.6-3,6.6-6.6C43.2,38,42.9,37.6,42.5,37.6L42.5,37.6z M42.5,37.6"/>
	<path fill="#606060" d="M10.6,16.4c-0.4,0-0.7,0.3-0.7,0.7c0,0.4,0.3,0.7,0.7,0.7c0.4,0,0.7-0.3,0.7-0.7
		C11.3,16.7,11,16.4,10.6,16.4L10.6,16.4z M10.6,16.4"/>
	<path fill="#606060" d="M35.5,16.4c-0.4,0-0.7,0.3-0.7,0.7c0,0.4,0.3,0.7,0.7,0.7c0.4,0,0.7-0.3,0.7-0.7
		C36.3,16.7,36,16.4,35.5,16.4L35.5,16.4z M35.5,16.4"/>
	<path fill="#606060" d="M13.6,18.5c-0.4,0-0.7,0.3-0.7,0.7c0,0.4,0.3,0.7,0.7,0.7c0.4,0,0.7-0.3,0.7-0.7
		C14.3,18.8,14,18.5,13.6,18.5L13.6,18.5z M13.6,18.5"/>
	<path fill="#606060" d="M3.7,24.4h38.8c0.4,0,0.7-0.3,0.7-0.7v-2.3c0-5.8-4.7-10.6-10.6-10.6h-8.8V7.6l6.5-3
		c0.3-0.1,0.4-0.4,0.4-0.7c0-0.3-0.2-0.5-0.4-0.7l-6.9-3.2c-0.2-0.1-0.5-0.1-0.7,0c-0.2,0.1-0.3,0.4-0.3,0.6v6.4c0,0,0,0,0,0v3.6
		h-8.8c-5.8,0-10.6,4.7-10.6,10.6v2.3C2.9,24,3.3,24.4,3.7,24.4L3.7,24.4z M23.8,1.9l4.4,2l-4.4,2V1.9z M4.4,21.3
		c0-5,4.1-9.1,9.1-9.1h19.1c5,0,9.1,4.1,9.1,9.1v1.6H4.4V21.3z M4.4,21.3"/>
</g>
</svg>
