<?xml version="1.0" encoding="utf-8"?>
<!-- Generator: Adobe Illustrator 18.0.0, SVG Export Plug-In . SVG Version: 6.00 Build 0)  -->
<!DOCTYPE svg PUBLIC "-//W3C//DTD SVG 1.1//EN" "http://www.w3.org/Graphics/SVG/1.1/DTD/svg11.dtd">
<svg version="1.1" id="Capa_1" xmlns="http://www.w3.org/2000/svg" xmlns:xlink="http://www.w3.org/1999/xlink" x="0px" y="0px"
	 viewBox="0 0 68.4 45" enable-background="new 0 0 68.4 45" xml:space="preserve">
<g>
	<path fill="#606060" d="M29.5,30.5c0.8-1.3,1.8-2.4,3.2-3.2c-0.2-0.3-0.4-0.7-0.5-1.1l-1.8-8.8l3.9,7.7c0.3,0.7,1,1.1,1.7,1.2
		l8.9,1.1c1.2,0.1,2.3-0.7,2.5-2c0.1-1.2-0.7-2.3-2-2.5L37.8,22l-3.3-6.7l2.6,2.9l0.4-1.4c0.5-1.8-0.5-3.6-2.3-4.1l-5.5-1.6
		c-1.9-0.5-3.8,0.6-4.2,2.5c-3.6,17.5-3.4,16.4-3.4,16.8H29.5z M29.5,30.5"/>
	<path fill="#606060" d="M40,4.9c0,2.7-2.2,5-5,5c-2.7,0-4.9-2.2-4.9-5c0-2.7,2.2-4.9,4.9-4.9C37.8,0,40,2.2,40,4.9L40,4.9z M40,4.9
		"/>
	<path fill="#606060" d="M44.7,29.7c-1.1-0.1-8.3-1-9.2-1.1c-1.7,0.7-3.1,1.9-4,3.6c19.4,1.7,18.1,1.5,18.7,1.8H27.8
		c-1.2,0-2.2,1-2.2,2.2c0,1.2,1,2.2,2.2,2.2c24.4,0,23.9,0,23.9,0c1.6,0,2.8-1.3,2.8-2.8l0-3.2c0-2.4-1.9-4.3-4.2-4.3l-1.6,0
		C47.8,29.2,46.3,29.9,44.7,29.7L44.7,29.7z M44.7,29.7"/>
	<path fill="#606060" d="M61.5,35.9C61.5,35.9,61.5,35.9,61.5,35.9c2.6,0,4.8-2.1,4.8-4.7c0-2.6-2.1-4.8-4.7-4.8c0,0,0,0,0,0
		c-2.6,0-4.7,2.1-4.7,4.7C56.8,33.8,58.9,35.9,61.5,35.9L61.5,35.9z M61.5,35.9"/>
	<path fill="#606060" d="M4.4,38.4h19.3c-0.3-0.5-0.5-1.1-0.6-1.8c-0.1-1.4,0.4-2.7,1.4-3.6H4.4c-1.5,0-2.7,1.2-2.7,2.7
		C1.7,37.1,2.9,38.4,4.4,38.4L4.4,38.4z M4.4,38.4"/>
	<path fill="#606060" d="M66.1,40.3H2.3c-1.3,0-2.3,1-2.3,2.3S1,45,2.3,45h63.7c1.3,0,2.3-1,2.3-2.3S67.4,40.3,66.1,40.3L66.1,40.3z
		 M66.1,40.3"/>
</g>
</svg>
