<?xml version="1.0" encoding="utf-8"?>
<!-- Generator: Adobe Illustrator 18.0.0, SVG Export Plug-In . SVG Version: 6.00 Build 0)  -->
<!DOCTYPE svg PUBLIC "-//W3C//DTD SVG 1.1//EN" "http://www.w3.org/Graphics/SVG/1.1/DTD/svg11.dtd">
<svg version="1.1" id="Capa_1" xmlns="http://www.w3.org/2000/svg" xmlns:xlink="http://www.w3.org/1999/xlink" x="0px" y="0px"
	 viewBox="49.8 0 412.4 512" enable-background="new 49.8 0 412.4 512" xml:space="preserve">
<g>
	<g>
		<path fill="#606060" d="M425.3,512H86.8c-20.4,0-37-16.6-37-36.9V192.6c0-20.4,16.6-37,37-37h338.5c20.4,0,36.9,16.6,36.9,37
			v282.5C462.2,495.4,445.6,512,425.3,512z M86.8,173.5c-10.5,0-19.1,8.6-19.1,19.1v282.5c0,10.5,8.6,19,19.1,19h338.5
			c10.5,0,19-8.5,19-19V192.6c0-10.5-8.5-19.1-19-19.1L86.8,173.5L86.8,173.5z"/>
	</g>
	<path fill="#606060" d="M387.1,173.5c-4.9,0-8.9-4-8.9-8.9V140c0-67.4-54.8-122.2-122.2-122.2S133.9,72.7,133.9,140v24.5
		c0,4.9-4,8.9-8.9,8.9c-4.9,0-8.9-4-8.9-8.9V140C116,62.8,178.8,0,256,0s140,62.8,140,140v24.5C396.1,169.5,392,173.5,387.1,173.5z"
		/>
	<path fill="#606060" d="M256,425c-15.2,0-27.6-12.4-27.6-27.6v-46c-18.6-10.1-30.3-29.4-30.3-50.9c0-31.9,26-57.9,57.9-57.9
		c32,0,58,26,58,57.9c0,21.5-11.7,40.9-30.4,50.9v46C283.6,412.6,271.2,425,256,425z M256,260.5c-22.1,0-40,18-40,40
		c0,16.3,9.7,30.8,24.8,37c3.4,1.4,5.5,4.7,5.5,8.3v51.6c0,5.3,4.3,9.7,9.7,9.7c5.4,0,9.8-4.3,9.8-9.7v-51.6c0-3.6,2.2-6.9,5.5-8.3
		c15.1-6.2,24.8-20.7,24.8-37C296.1,278.4,278.1,260.5,256,260.5z"/>
</g>
</svg>
