<?xml version="1.0" encoding="utf-8"?>
<!-- Generator: Adobe Illustrator 18.0.0, SVG Export Plug-In . SVG Version: 6.00 Build 0)  -->
<!DOCTYPE svg PUBLIC "-//W3C//DTD SVG 1.1//EN" "http://www.w3.org/Graphics/SVG/1.1/DTD/svg11.dtd">
<svg version="1.1" id="Capa_1" xmlns="http://www.w3.org/2000/svg" xmlns:xlink="http://www.w3.org/1999/xlink" x="0px" y="0px"
	 viewBox="0 44.2 512 423.5" enable-background="new 0 44.2 512 423.5" xml:space="preserve">
<g>
	<path fill="#606060" d="M503.7,380.4h-26.5c-10.2,0-33.4-9.1-60.3-19.5c-11.6-4.5-24.3-9.5-37.6-14.3V209.9
		c10.3-3.5,17.7-13.2,17.7-24.6v-6c13.9,4.6,27.3,15.6,27.6,41.5c0.1,4.5,3.8,8.2,8.3,8.2c0,0,0.1,0,0.1,0c4.6-0.1,8.2-3.8,8.2-8.4
		c-0.4-31.1-15.9-51.1-44.2-58.3v-1.1c10.3-4.1,21.7-5.9,33.2-5c19.7,1.5,37.2,10.6,49.4,25.6c1.6,2,4,3.1,6.4,3.1
		c1.8,0,3.7-0.6,5.2-1.9c3.6-2.9,4.1-8.1,1.2-11.7c-15.1-18.5-36.7-29.7-61-31.6c-16.3-1.3-32.4,1.9-46.5,8.8
		c3.9-6.9,9.6-13.4,16.5-18.4c9.2-6.6,28.6-16.5,55.4-7.6c4.4,1.4,9-0.9,10.5-5.3c1.4-4.4-0.9-9-5.3-10.5
		c-25.1-8.3-50.1-4.7-70.3,9.9c-0.8,0.6-1.7,1.2-2.5,1.9c6.7-11.6,16.4-19.7,27.8-22.4c4.5-1,7.3-5.5,6.2-9.9
		c-1-4.5-5.5-7.3-9.9-6.2c-18.6,4.3-33.6,18.4-42.4,38c-8.7-19.6-23.8-33.8-42.4-38c-4.5-1-8.9,1.8-9.9,6.2c-1,4.5,1.8,8.9,6.2,9.9
		c11.5,2.6,21.2,10.8,27.8,22.4c-0.8-0.6-1.6-1.3-2.5-1.9c-20.3-14.7-45.3-18.2-70.3-9.9c-4.4,1.4-6.7,6.1-5.3,10.5
		c1.4,4.4,6.1,6.7,10.5,5.3c26.8-8.8,46.2,1,55.4,7.6c6.9,5,12.6,11.5,16.5,18.4c-14.2-6.9-30.3-10.1-46.5-8.8
		c-24.2,1.9-45.9,13.1-61,31.6c-2.9,3.5-2.4,8.8,1.2,11.7c1.5,1.3,3.4,1.9,5.2,1.9c2.4,0,4.8-1,6.4-3.1c12.2-15,29.7-24,49.4-25.6
		c11.5-0.9,22.9,0.9,33.2,5v1.1c-28.4,7.2-43.9,27.3-44.2,58.3c-0.1,4.6,3.6,8.3,8.2,8.4c0,0,0.1,0,0.1,0c4.5,0,8.2-3.6,8.3-8.2
		c0.1-8.9,0.4-32.3,27.6-41.3v5.8c0,11.4,7.4,21.2,17.7,24.6v130.8c-35.1-12-73.1-22.2-106.7-22.2s-71.7,10.2-106.7,22.2V174.5
		c10.3-3.5,17.7-13.2,17.7-24.6v-6c13.9,4.6,27.3,15.6,27.6,41.5c0.1,4.5,3.8,8.2,8.3,8.2c0,0,0.1,0,0.1,0c4.6-0.1,8.2-3.8,8.2-8.4
		c-0.4-31.1-15.9-51.1-44.2-58.3v-1.1c10.3-4.1,21.7-5.9,33.2-5c19.7,1.5,37.2,10.6,49.4,25.6c1.6,2,4,3.1,6.4,3.1
		c1.8,0,3.7-0.6,5.2-1.9c3.6-2.9,4.1-8.1,1.2-11.7c-15.1-18.5-36.7-29.7-61-31.6c-16.3-1.3-32.4,1.9-46.5,8.8
		c3.9-6.9,9.6-13.4,16.5-18.4c9.2-6.6,28.6-16.5,55.4-7.6c4.4,1.4,9-0.9,10.5-5.3c1.4-4.4-0.9-9-5.3-10.5
		c-25.1-8.3-50.1-4.7-70.3,9.9c-0.8,0.6-1.7,1.2-2.5,1.9c6.7-11.6,16.4-19.7,27.8-22.4c4.5-1,7.3-5.5,6.2-9.9
		c-1-4.5-5.5-7.3-9.9-6.2c-18.6,4.3-33.6,18.4-42.4,38c-8.7-19.6-23.8-33.8-42.4-38c-4.5-1-8.9,1.8-9.9,6.2c-1,4.5,1.8,8.9,6.2,9.9
		c13.1,3,23.9,13.2,30.6,27.7c-1.8-1.5-3.6-3-5.6-4.4C96.6,67,67.8,62.4,41.1,71.2c-4.4,1.4-6.7,6.1-5.3,10.5
		c1.4,4.4,6.1,6.7,10.5,5.3c21.6-7.1,44.9-3.3,63.9,10.4c6,4.3,11,9.4,14.8,14.6c-13.7-6.2-29-9-44.5-7.8
		c-24.2,1.9-45.9,13.1-61,31.6c-2.9,3.5-2.4,8.8,1.2,11.7c1.5,1.3,3.4,1.9,5.2,1.9c2.4,0,4.8-1,6.4-3.1c12.2-15,29.7-24,49.4-25.6
		c11.5-0.9,22.9,0.9,33.2,5v1.1c-28.4,7.2-43.9,27.3-44.2,58.3c-0.1,4.6,3.6,8.3,8.2,8.4c0,0,0.1,0,0.1,0c4.5,0,8.2-3.6,8.3-8.2
		c0.1-8.9,0.4-32.3,27.6-41.3v5.8c0,11.4,7.4,21.2,17.7,24.6v172.1c-13.3,4.9-26,9.8-37.6,14.3c-26.9,10.5-50.1,19.5-60.3,19.5H8.3
		c-4.6,0-8.3,3.7-8.3,8.3s3.7,8.3,8.3,8.3h495.4c4.6,0,8.3-3.7,8.3-8.3S508.3,380.4,503.7,380.4z M361.6,176.2
		c2.9-0.3,6.1-0.4,9.4-0.4c2.4,0,5.6,0,9.4,0.3v9.1c0,5.2-4.2,9.4-9.4,9.4s-9.4-4.2-9.4-9.4V176.2z M131.6,140.8
		c2.9-0.3,6.1-0.4,9.4-0.4c2.4,0,5.6,0,9.4,0.3v9.1c0,5.2-4.2,9.4-9.4,9.4s-9.4-4.2-9.4-9.4C131.6,149.8,131.6,140.8,131.6,140.8z
		 M90.7,380.4c3.4-1.3,6.9-2.7,10.5-4.1c44.6-17.4,105.7-41.3,154.8-41.3s110.2,23.8,154.8,41.3c3.6,1.4,7.1,2.8,10.5,4.1H90.7
		L90.7,380.4z"/>
	<path fill="#606060" d="M344.5,415.8H185.2c-4.6,0-8.3,3.7-8.3,8.3s3.7,8.3,8.3,8.3h159.2c4.6,0,8.3-3.7,8.3-8.3
		S349,415.8,344.5,415.8z"/>
	<path fill="#606060" d="M149.8,415.8H79.1c-4.6,0-8.3,3.7-8.3,8.3s3.7,8.3,8.3,8.3h70.8c4.6,0,8.3-3.7,8.3-8.3
		S154.4,415.8,149.8,415.8z"/>
	<path fill="#606060" d="M397.5,415.8h-17.7c-4.6,0-8.3,3.7-8.3,8.3s3.7,8.3,8.3,8.3h17.7c4.6,0,8.3-3.7,8.3-8.3
		S402.1,415.8,397.5,415.8z"/>
	<path fill="#606060" d="M326.8,451.2h-88.5c-4.6,0-8.3,3.7-8.3,8.3s3.7,8.3,8.3,8.3h88.5c4.6,0,8.3-3.7,8.3-8.3
		S331.4,451.2,326.8,451.2z"/>
	<path fill="#606060" d="M202.9,451.2h-17.7c-4.6,0-8.3,3.7-8.3,8.3s3.7,8.3,8.3,8.3h17.7c4.6,0,8.3-3.7,8.3-8.3
		S207.5,451.2,202.9,451.2z"/>
</g>
</svg>
