<?xml version="1.0" encoding="utf-8"?>
<!-- Generator: Adobe Illustrator 18.0.0, SVG Export Plug-In . SVG Version: 6.00 Build 0)  -->
<!DOCTYPE svg PUBLIC "-//W3C//DTD SVG 1.1//EN" "http://www.w3.org/Graphics/SVG/1.1/DTD/svg11.dtd">
<svg version="1.1" id="Capa_1" xmlns="http://www.w3.org/2000/svg" xmlns:xlink="http://www.w3.org/1999/xlink" x="0px" y="0px"
	 viewBox="0 123.3 595.3 595.3" enable-background="new 0 123.3 595.3 595.3" xml:space="preserve">
<g>
	<path fill="#606060" d="M359.2,248.3H148.8v347.2h49.6v-123h160.7c61.5,0,111.1-49.6,111.1-111.1
		C470.3,297.9,422.6,248.3,359.2,248.3L359.2,248.3z M359.2,420.9H198.4v-125h160.7c33.7,0,61.5,27.8,61.5,61.5
		C422.6,393.2,394.9,420.9,359.2,420.9L359.2,420.9z"/>
	<path fill="#606060" d="M519.9,123.3H73.4C31.7,123.3,0,155.1,0,196.7v446.5c0,43.7,31.7,75.4,73.4,75.4h446.5
		c41.7,0,75.4-31.7,75.4-75.4V196.7C595.3,155.1,563.5,123.3,519.9,123.3L519.9,123.3z M545.7,643.2c0,13.9-9.9,23.8-23.8,23.8H73.4
		c-13.9,0-23.8-9.9-23.8-23.8V196.7c0-13.9,9.9-23.8,23.8-23.8h446.5c13.9,0,23.8,9.9,23.8,23.8v446.5H545.7z"/>
</g>
</svg>
