<?xml version="1.0" encoding="utf-8"?>
<!-- Generator: Adobe Illustrator 18.0.0, SVG Export Plug-In . SVG Version: 6.00 Build 0)  -->
<!DOCTYPE svg PUBLIC "-//W3C//DTD SVG 1.1//EN" "http://www.w3.org/Graphics/SVG/1.1/DTD/svg11.dtd">
<svg version="1.1" id="Capa_1" xmlns="http://www.w3.org/2000/svg" xmlns:xlink="http://www.w3.org/1999/xlink" x="0px" y="0px"
	 viewBox="0 0 30 30" enable-background="new 0 0 30 30" xml:space="preserve">
<g>
	<path fill="#606060" d="M18.1,6.3H7.5v17.5H10v-6.2h8.1c3.1,0,5.6-2.5,5.6-5.6C23.7,8.8,21.3,6.3,18.1,6.3L18.1,6.3z M18.1,15H10
		V8.7h8.1c1.7,0,3.1,1.4,3.1,3.1C21.3,13.6,19.9,15,18.1,15L18.1,15z M18.1,15"/>
	<path fill="#606060" d="M26.2,0H3.7C1.6,0,0,1.6,0,3.7v22.5C0,28.4,1.6,30,3.7,30h22.5c2.1,0,3.8-1.6,3.8-3.8V3.7
		C30,1.6,28.4,0,26.2,0L26.2,0z M27.5,26.2c0,0.7-0.5,1.2-1.2,1.2H3.7c-0.7,0-1.2-0.5-1.2-1.2V3.7C2.5,3,3,2.5,3.7,2.5h22.5
		c0.7,0,1.2,0.5,1.2,1.2V26.2z M27.5,26.2"/>
</g>
</svg>
