<?xml version="1.0" encoding="utf-8"?>
<!-- Generator: Adobe Illustrator 18.0.0, SVG Export Plug-In . SVG Version: 6.00 Build 0)  -->
<!DOCTYPE svg PUBLIC "-//W3C//DTD SVG 1.1//EN" "http://www.w3.org/Graphics/SVG/1.1/DTD/svg11.dtd">
<svg version="1.1" id="Capa_1" xmlns="http://www.w3.org/2000/svg" xmlns:xlink="http://www.w3.org/1999/xlink" x="0px" y="0px"
	 viewBox="25.4 25 461.2 461.2" enable-background="new 25.4 25 461.2 461.2" xml:space="preserve">
<g>
	<path fill="#606060" d="M160.7,465.6c0.8,0.4,1.2,0.8,2,0.8c28.6,12.7,59.9,19.8,93.3,19.8c92.9,0,173-55.6,209.6-134.9
		c0.4-0.8,0.8-1.2,1.2-2c12.7-28.6,19.8-60.3,19.8-93.7c0-93.3-55.6-173.4-135.3-209.6c-0.8-0.4-1.2-0.8-2-1.2
		C320.7,32.1,289.3,25,256.4,25C162.7,25.4,82.6,81.4,46,161.5c-0.4,0.8-0.8,1.2-0.8,2c-12.7,28.6-19.8,59.9-19.8,92.9
		C25.8,349.3,81.4,429.4,160.7,465.6L160.7,465.6z M256,454.1c-20.2,0-40.1-3.2-58.3-8.7l165.5-165.5l68.7,67.9
		C398.1,410.8,332.2,454.1,256,454.1L256,454.1z M255.6,340.9L170.7,256l83.7-83.7l85.3,84.5L255.6,340.9L255.6,340.9z M454.1,256
		c0,20.6-3.2,40.5-9.1,59.1L277.4,149.6l69.5-69.1C410.4,113.5,454.1,179.8,454.1,256L454.1,256z M256,57.9
		c20.2,0,40.1,3.2,58.3,8.7L147.6,233l-67.5-67.5C113.1,101.6,179.4,57.9,256,57.9z M66.7,198.1l69.5,69.5l0,0l96.4,96.4l-67.9,67.9
		c-63.5-32.9-107.2-99.2-107.2-175.4C57.9,235.8,61.1,216.3,66.7,198.1L66.7,198.1z"/>
</g>
</svg>
