<?xml version="1.0" encoding="utf-8"?>
<!-- Generator: Adobe Illustrator 18.0.0, SVG Export Plug-In . SVG Version: 6.00 Build 0)  -->
<!DOCTYPE svg PUBLIC "-//W3C//DTD SVG 1.1//EN" "http://www.w3.org/Graphics/SVG/1.1/DTD/svg11.dtd">
<svg version="1.1" id="Capa_1" xmlns="http://www.w3.org/2000/svg" xmlns:xlink="http://www.w3.org/1999/xlink" x="0px" y="0px"
	 viewBox="508 2148.6 60.7 40" enable-background="new 508 2148.6 60.7 40" xml:space="preserve">
<g>
	<path fill="#606060" d="M522.5,2178.9c-1.7,0-3,1.3-3,3s1.3,3,3,3c1.7,0,3-1.3,3-3C525.6,2180.3,524.2,2178.9,522.5,2178.9
		L522.5,2178.9z M522.5,2182.8c-0.4,0-0.8-0.4-0.8-0.8c0-0.4,0.4-0.8,0.8-0.8c0.4,0,0.8,0.4,0.8,0.8
		C523.4,2182.5,523,2182.8,522.5,2182.8L522.5,2182.8z"/>
	<path fill="#606060" d="M553.9,2178.9c-1.7,0-3,1.3-3,3s1.3,3,3,3s3-1.3,3-3C557,2180.3,555.6,2178.9,553.9,2178.9L553.9,2178.9z
		 M553.9,2182.8c-0.4,0-0.8-0.4-0.8-0.8c0-0.4,0.4-0.8,0.8-0.8c0.4,0,0.8,0.4,0.8,0.8C554.7,2182.5,554.4,2182.8,553.9,2182.8
		L553.9,2182.8z"/>
	<path fill="#606060" d="M567.1,2176.7V2155c0-3.6-2.8-6.4-6.4-6.4h-41.4c-5.4,0-9.9,4.4-9.9,9.9v18.1c-0.9,0.6-1.4,1.7-1.4,2.8v0.2
		c0,2,1.6,3.5,3.5,3.5h4.5c0.5,3.1,3.3,5.5,6.6,5.5c3.3,0,6-2.4,6.6-5.5h18.3c0.5,3.1,3.3,5.5,6.6,5.5c3.3,0,6-2.4,6.6-5.5h4.5
		c2,0,3.5-1.6,3.5-3.5v-0.2C568.4,2178.3,567.9,2177.3,567.1,2176.7L567.1,2176.7z M564.9,2165.1h-3c-0.2,0-0.3-0.1-0.3-0.3v-8.5
		c0-0.2,0.1-0.3,0.3-0.3h3V2165.1z M510.2,2179.6v-0.2c0-0.7,0.6-1.3,1.3-1.3h5.6c-0.5,0.8-1,1.7-1.2,2.8h-4.5
		C510.7,2180.9,510.2,2180.3,510.2,2179.6L510.2,2179.6z M522.5,2186.4c-2.4,0-4.4-2-4.4-4.4s2-4.4,4.4-4.4s4.4,2,4.4,4.4
		S525,2186.4,522.5,2186.4L522.5,2186.4z M547.4,2180.9H529c-0.5-3.1-3.3-5.5-6.6-5.5c-1,0-2,0.2-2.8,0.6h-8.2v-17.4
		c0-4.3,3.5-7.7,7.7-7.7h41.4c2,0,3.6,1.3,4,3h-2.8c-1.3,0-2.5,1.2-2.5,2.5v8.5c0,1.3,1.2,2.5,2.5,2.5h3v8.5h-8.2
		c-0.8-0.4-1.8-0.6-2.8-0.6C550.6,2175.4,547.9,2177.8,547.4,2180.9L547.4,2180.9z M553.9,2186.4c-2.4,0-4.4-2-4.4-4.4
		s2-4.4,4.4-4.4s4.4,2,4.4,4.4C558.4,2184.4,556.3,2186.4,553.9,2186.4L553.9,2186.4z M566.2,2179.6c0,0.7-0.5,1.3-1.3,1.3h-4.5
		c-0.2-1-0.5-2-1.2-2.8h5.6C565.5,2178.2,566.1,2178.8,566.2,2179.6L566.2,2179.6L566.2,2179.6z"/>
	<path fill="#606060" d="M556.1,2164.9v-8.5c0-1.3-1.2-2.5-2.5-2.5h-34c-2.9,0-5.3,2.4-5.3,5.3v5.7c0,1.3,1.2,2.5,2.5,2.5h36.9
		C554.9,2167.4,556.1,2166.3,556.1,2164.9L556.1,2164.9z M536.2,2156.1h8.7v9.1h-8.7V2156.1z M534,2165.1h-8.7v-9.1h8.7V2165.1z
		 M516.4,2164.9v-5.7c0-1.7,1.4-3.1,3.1-3.1h3.6v9.1h-6.4C516.5,2165.1,516.4,2165,516.4,2164.9L516.4,2164.9z M553.8,2164.9
		c0,0.2-0.1,0.3-0.3,0.3h-6.4v-9.1h6.4c0.2,0,0.3,0.1,0.3,0.3V2164.9z"/>
	<path fill="#606060" d="M562.4,2174.2c0.6,0,1.1-0.5,1.1-1.1v-1c0-0.6-0.5-1.1-1.1-1.1c-0.6,0-1.1,0.5-1.1,1.1v1
		C561.3,2173.8,561.8,2174.2,562.4,2174.2L562.4,2174.2z"/>
</g>
</svg>
