<?xml version="1.0" encoding="utf-8"?>
<!-- Generator: Adobe Illustrator 18.0.0, SVG Export Plug-In . SVG Version: 6.00 Build 0)  -->
<!DOCTYPE svg PUBLIC "-//W3C//DTD SVG 1.1//EN" "http://www.w3.org/Graphics/SVG/1.1/DTD/svg11.dtd">
<svg version="1.1" id="Capa_1" xmlns="http://www.w3.org/2000/svg" xmlns:xlink="http://www.w3.org/1999/xlink" x="0px" y="0px"
	 viewBox="0 0 45 45" enable-background="new 0 0 45 45" xml:space="preserve">
<g>
	<path fill="#606060" d="M38.6,15.6c-1.4-0.9-3.2-1.3-5-1.3H18.9c-1.8,0-3.6,0.5-5,1.3c-2.2,1.3-3.4,3.2-3.4,5.4l0,5.9
		c0,0.1-0.1,1.4,1,2.7c1.1,1.3,3.1,1.9,5.8,1.9c0.3,0,7.5-0.2,7.5-5.2l0,0c0-0.8,0.7-1.5,1.5-1.5c0.8,0,1.5,0.7,1.5,1.5l0,0
		c0,5.1,7.2,5.2,7.5,5.3c2.7,0,4.6-0.6,5.8-1.9c1.1-1.2,1-2.6,1-2.6v-6C42,18.8,40.8,16.9,38.6,15.6L38.6,15.6z M39.9,28.6
		C39,29.5,37.4,30,35.3,30c-0.1,0-6-0.2-6-3.7l0,0c0-1.7-1.3-3-3-3c-1.7,0-3,1.3-3,3l0,0c0,3.6-6,3.8-6,3.8c-2.2,0-3.8-0.5-4.6-1.4
		C11.9,27.9,12,27.1,12,27v-6c0-1.7,0.9-3.1,2.6-4.1c1.2-0.7,2.7-1.1,4.2-1.1h14.8c1.6,0,3,0.4,4.2,1.1c1.8,1.1,2.6,2.5,2.6,4.1
		l0,6.1C40.5,27.1,40.6,27.9,39.9,28.6L39.9,28.6z M39.9,28.6"/>
	<path fill="#606060" d="M45,19.6c0-4.6-3.8-8.4-8.4-8.4H15.9c-4.6,0-8.4,3.8-8.4,8.4v1.3l0,0.1v0H6V0H0v35.3c0,5,4,9,9,9h7.8
		c0.3,0.5,0.8,0.8,1.4,0.8h8.6c0.9,0,1.7-0.8,1.7-1.7v-4.1c0-0.9-0.8-1.7-1.7-1.7h-8.6c-0.6,0-1.1,0.3-1.4,0.8H9c-1.7,0-3-1.3-3-3
		v-9.8h1.5v1.4c0,0.8,0.1,2.9,1.8,4.7c1.7,1.9,4.4,2.9,8,2.9c3.8-0.1,7.1-1.5,8.9-3.8c1.8,2.3,5.1,3.7,9,3.8c3.6,0,6.3-1,8-2.9
		c1.7-1.9,1.8-3.9,1.8-4.7L45,19.6z M4.5,1.5V6h-3V1.5H4.5z M27,39.2v4.1c0,0.1-0.1,0.2-0.2,0.2h-8.6c-0.1,0-0.1-0.1-0.2-0.1l0,0
		l0-4.1l0-0.1c0-0.1,0.1-0.1,0.2-0.1h8.6C26.9,39,27,39.1,27,39.2L27,39.2z M9,39.7h7.5v3H9c-4.1,0-7.5-3.4-7.5-7.5V7.5h3v27.8
		C4.5,37.7,6.5,39.7,9,39.7L9,39.7z M6.1,24v-1.5h1.4V24H6.1z M43.5,22.5L43.5,22.5l0,4.5c0,0.6-0.1,2.2-1.4,3.7
		c-1.4,1.6-3.7,2.4-6.9,2.4c-3.3-0.1-6.3-1.3-7.8-3.2c-0.3-0.4-0.7-0.6-1.2-0.6s-0.9,0.2-1.2,0.6c-1.5,1.9-4.5,3.1-7.8,3.2
		c-3.2,0-5.5-0.8-6.9-2.4c-1.3-1.5-1.4-3-1.4-3.7l0-1.4h0V21h0l0-1.4c0-3.8,3.1-6.9,6.9-6.9h20.7c3.8,0,6.9,3.1,6.9,6.9V22.5z
		 M43.5,22.5"/>
	<path fill="#606060" d="M18.5,18.2c-0.3-0.3-0.8-0.3-1.1,0l-3,3c-0.3,0.3-0.3,0.8,0,1.1c0.1,0.1,0.3,0.2,0.5,0.2s0.4-0.1,0.5-0.2
		l3-3C18.8,19,18.8,18.5,18.5,18.2L18.5,18.2z M18.5,18.2"/>
	<path fill="#606060" d="M22.7,18.2l-5.3,5.3c-0.3,0.3-0.3,0.8,0,1.1c0.1,0.1,0.3,0.2,0.5,0.2c0.2,0,0.4-0.1,0.5-0.2l5.3-5.2
		c0.3-0.3,0.3-0.8,0-1.1C23.5,17.9,23,17.9,22.7,18.2L22.7,18.2z M22.7,18.2"/>
</g>
</svg>
