<?xml version="1.0" encoding="utf-8"?>
<!-- Generator: Adobe Illustrator 18.0.0, SVG Export Plug-In . SVG Version: 6.00 Build 0)  -->
<!DOCTYPE svg PUBLIC "-//W3C//DTD SVG 1.1//EN" "http://www.w3.org/Graphics/SVG/1.1/DTD/svg11.dtd">
<svg version="1.1" id="Capa_1" xmlns="http://www.w3.org/2000/svg" xmlns:xlink="http://www.w3.org/1999/xlink" x="0px" y="0px"
	 viewBox="0 0 35.7 45" enable-background="new 0 0 35.7 45" xml:space="preserve">
<g>
	<path fill="#606060" d="M13.8,18.7c-1.1,0-2.2-0.7-3.1-1.9c-1.2-1.6-2.6-2.4-4.1-2.5c-1.1,0-2.1,0.4-2.9,0.9
		c-0.1,0.6-0.2,1.3-0.2,1.9c0.5-0.6,1.7-1.7,3.1-1.7h0.1c1.1,0,2.1,0.6,3.1,1.8c1.2,1.6,2.7,2.4,4.2,2.4h0.1c1.3,0,2.5-0.6,3.4-1.1
		c0-0.5-0.1-0.9-0.1-1.4C16.5,17.7,15.3,18.7,13.8,18.7L13.8,18.7z M13.8,18.7"/>
	<path fill="#606060" d="M25.3,20.9c0,0.1,0,0.3,0,0.3l1.4-0.1c0-0.1,0-0.2,0-0.2c0-0.2,0.1-0.5,0.3-0.8c0.2-0.3,0.7-0.4,1.2-0.5
		l0-1.4c-1,0-1.7,0.3-2.2,0.9c-0.7-0.7-1.7-0.9-2.4-0.9l0,1.4C23.7,19.6,25.1,19.7,25.3,20.9L25.3,20.9z M25.3,20.9"/>
	<path fill="#606060" d="M31.7,25.9c0,0.1,0,0.3,0,0.3l1.4-0.1c0-0.1,0-0.2,0-0.3c0-0.2,0.1-0.5,0.3-0.8c0.2-0.3,0.7-0.4,1.2-0.5
		l0-1.4c-1,0-1.7,0.3-2.2,0.9c-0.7-0.7-1.7-0.9-2.4-0.9l0,1.4C30.2,24.6,31.5,24.7,31.7,25.9L31.7,25.9z M31.7,25.9"/>
	<rect x="9.1" y="28.2" fill="#606060" width="1.3" height="2.2"/>
	<path fill="#606060" d="M27.8,39.4c0.2-0.9,0.3-1.8,0.3-2.7c0-5.6-4.2-10.3-9.6-11.1c0,0.5-0.1,0.9-0.2,1.4
		c4.8,0.7,8.4,4.9,8.4,9.7c0,0.9-0.1,1.8-0.4,2.7H15.5c0.7-1.9,2.2-6.6,2.9-12.5c0.1-0.5,0.1-0.9,0.2-1.4c0-0.1,0-0.1,0-0.2
		c1-11-1.7-19.6-7.8-25L10.3,0L9.8,0.4C3.7,5.8,1,14.4,2,25.4c0.6,6.6,2.4,12,3.1,14H0v1.4h35.7v-1.4H27.8z M10.4,39.4v-7.7H9.1v7.7
		H6.6c-0.7-1.8-4.2-12.1-3.2-22.3c0.1-0.6,0.1-1.3,0.2-1.9c0.8-4.9,2.7-9.7,6.6-13.4c4.4,4.1,6.3,9.7,6.9,15.3
		c0,0.5,0.1,0.9,0.1,1.4c0.6,9.7-2.6,19.2-3.3,20.8H10.4z M10.4,39.4"/>
	<rect x="6.2" y="43.5" fill="#606060" width="18.4" height="1.5"/>
	<rect x="26.6" y="43.5" fill="#606060" width="4.2" height="1.5"/>
</g>
</svg>
