<?xml version="1.0" encoding="utf-8"?>
<!-- Generator: Adobe Illustrator 18.0.0, SVG Export Plug-In . SVG Version: 6.00 Build 0)  -->
<!DOCTYPE svg PUBLIC "-//W3C//DTD SVG 1.1//EN" "http://www.w3.org/Graphics/SVG/1.1/DTD/svg11.dtd">
<svg version="1.1" id="Capa_1" xmlns="http://www.w3.org/2000/svg" xmlns:xlink="http://www.w3.org/1999/xlink" x="0px" y="0px"
	 viewBox="0 168 602.8 503.4" enable-background="new 0 168 602.8 503.4" xml:space="preserve">
<g>
	<path fill="#606060" d="M585.2,549.3c-20.1,0-31.5,6.3-41.5,11.3c-8.8,5-15.1,8.8-31.5,8.8c-15.1,0-22.7-3.8-31.5-8.8
		c-10.1-5-20.1-11.3-41.5-11.3c-20.1,0-31.5,6.3-41.5,11.3c-8.8,5-15.1,8.8-31.5,8.8c-16.4,0-22.7-3.8-31.5-8.8
		c-10.1-5-20.1-11.3-41.5-11.3c-20.1,0-31.5,6.3-41.5,11.3c-8.8,5-15.1,8.8-31.5,8.8c-15.1,0-22.7-3.8-31.5-8.8
		c-10.1-5-20.1-11.3-41.5-11.3c-3.8,0-7.6,0-10.1,0v-51.6h93.1v31.5c0,6.3,5,10.1,10.1,10.1c6.3,0,10.1-5,10.1-10.1V292.6
		c0-36.5,18.9-68,46.6-85.6c28.9,18.9,46.6,51.6,46.6,85.6c0,6.3,5,10.1,10.1,10.1c6.3,0,10.1-5,10.1-10.1c0-37.8-17.6-73-46.6-96.9
		c11.3-3.8,23.9-6.3,36.5-6.3c56.6,0,103.2,46.6,103.2,103.2c0,6.3,5,10.1,10.1,10.1c6.3,0,10.1-5,10.1-10.1
		c6.3-68-49.1-123.3-117-123.3s-123.3,55.4-123.3,123.3v20.1h-93.1v-20.1c0-56.6,46.6-103.2,103.2-103.2c2.5,0,5,0,7.6,0
		c6.3,0,10.1-3.8,11.3-10.1c0-5-3.8-10.1-10.1-11.3c-2.5,0-6.3,0-8.8,0c-68,0-123.3,55.4-123.3,123.3v263c-3.8,2.5-7.6,5-10.1,6.3
		c-8.8,5-15.1,8.8-31.5,8.8c-15.1,0-22.7-3.8-31.5-8.8c-10.1-5-20.1-11.3-41.5-11.3c-3.8,0-8.8,5-8.8,10.1c0,6.3,5,10.1,10.1,10.1
		c15.1,0,22.7,3.8,31.5,8.8c8.8,6.3,20.1,12.6,40.3,12.6s31.5-6.3,41.5-11.3c8.8-5,15.1-8.8,31.5-8.8c15.1,0,22.7,3.8,31.5,8.8
		c10.1,5,20.1,11.3,41.5,11.3c20.1,0,31.5-6.3,41.5-11.3c8.8-5,15.1-8.8,31.5-8.8c15.1,0,22.7,3.8,31.5,8.8
		c10.1,5,20.1,11.3,41.5,11.3c20.1,0,31.5-6.3,41.5-11.3c8.8-5,15.1-8.8,31.5-8.8c15.1,0,22.7,3.8,31.5,8.8
		c10.1,5,20.1,11.3,41.5,11.3c20.1,0,31.5-6.3,41.5-11.3c8.8-5,15.1-8.8,31.5-8.8c6.3,0,10.1-5,10.1-10.1
		C595.3,554.3,591.5,549.3,585.2,549.3L585.2,549.3z M143.5,477.6v-61.7h93.1v61.7H143.5z M236.6,332.8v61.7h-93.1v-61.7H236.6z"/>
	<path fill="#606060" d="M513.5,611c-15.1,0-22.7-3.8-31.5-8.8c-10.1-5-20.1-11.3-41.5-11.3c-20.1,0-31.5,6.3-41.5,11.3
		c-8.8,5-15.1,8.8-31.5,8.8s-22.7-3.8-31.5-8.8c-10.1-5-20.1-11.3-41.5-11.3c-20.1,0-31.5,6.3-41.5,11.3c-8.8,5-15.1,8.8-31.5,8.8
		c-15.1,0-22.7-3.8-31.5-8.8c-10.1-5-20.1-11.3-41.5-11.3c-20.1,0-31.5,6.3-41.5,11.3c-8.8,5-15.1,8.8-31.5,8.8
		c-6.3,0-10.1,5-10.1,10.1c0,6.3,5,10.1,10.1,10.1c20.1,0,31.5-6.3,41.5-11.3c8.8-5,15.1-8.8,31.5-8.8c15.1,0,22.7,3.8,31.5,8.8
		c10.1,5,20.1,11.3,41.5,11.3c20.1,0,31.5-6.3,41.5-11.3c8.8-5,15.1-8.8,31.5-8.8c15.1,0,22.7,3.8,31.5,8.8
		c10.1,5,20.1,11.3,41.5,11.3c20.1,0,31.5-6.3,41.5-11.3c8.8-5,15.1-8.8,31.5-8.8c15.1,0,22.7,3.8,31.5,8.8
		c10.1,5,20.1,11.3,41.5,11.3c6.3,0,10.1-5,10.1-10.1S519.8,611,513.5,611L513.5,611z"/>
	<path fill="#606060" d="M441.7,631.1c-20.1,0-31.5,6.3-41.5,11.3c-8.8,5-15.1,8.8-31.5,8.8c-16.4,0-22.7-3.8-31.5-8.8
		c-10.1-5-20.1-11.3-41.5-11.3c-20.1,0-31.5,6.3-41.5,11.3c-8.8,5-15.1,8.8-31.5,8.8c-15.1,0-22.7-3.8-31.5-8.8
		c-10.1-5-20.1-11.3-41.5-11.3c-6.3,0-10.1,5-10.1,10.1c0,6.3,5,10.1,10.1,10.1c15.1,0,22.7,3.8,31.5,8.8
		c10.1,5,20.1,11.3,41.5,11.3c20.1,0,31.5-6.3,41.5-11.3c8.8-5,15.1-8.8,31.5-8.8c15.1,0,22.7,3.8,31.5,8.8
		c10.1,5,20.1,11.3,41.5,11.3c20.1,0,31.5-6.3,41.5-11.3c8.8-5,15.1-8.8,31.5-8.8c6.3,0,10.1-5,10.1-10.1
		C451.8,636.2,448,631.1,441.7,631.1L441.7,631.1z"/>
</g>
</svg>
