<?xml version="1.0" encoding="utf-8"?>
<!-- Generator: Adobe Illustrator 18.0.0, SVG Export Plug-In . SVG Version: 6.00 Build 0)  -->
<!DOCTYPE svg PUBLIC "-//W3C//DTD SVG 1.1//EN" "http://www.w3.org/Graphics/SVG/1.1/DTD/svg11.dtd">
<svg version="1.1" id="Capa_1" xmlns="http://www.w3.org/2000/svg" xmlns:xlink="http://www.w3.org/1999/xlink" x="0px" y="0px"
	 viewBox="0 0 47.3 40" enable-background="new 0 0 47.3 40" xml:space="preserve">
<g>
	<path fill="#606060" d="M46.5,30.2c-1.6,0-2.5,0.5-3.3,0.9c-0.7,0.4-1.2,0.7-2.5,0.7c-1.2,0-1.8-0.3-2.5-0.7
		c-0.8-0.4-1.6-0.9-3.3-0.9c-1.6,0-2.5,0.5-3.3,0.9c-0.7,0.4-1.2,0.7-2.5,0.7s-1.8-0.3-2.5-0.7c-0.8-0.4-1.6-0.9-3.3-0.9
		c-1.6,0-2.5,0.5-3.3,0.9c-0.7,0.4-1.2,0.7-2.5,0.7c-1.2,0-1.8-0.3-2.5-0.7c-0.8-0.4-1.6-0.9-3.3-0.9c-0.3,0-0.6,0-0.8,0v-4.1h7.4
		v2.5c0,0.5,0.4,0.8,0.8,0.8c0.5,0,0.8-0.4,0.8-0.8V9.8c0-2.9,1.5-5.4,3.7-6.8c2.3,1.5,3.7,4.1,3.7,6.8c0,0.5,0.4,0.8,0.8,0.8
		c0.5,0,0.8-0.4,0.8-0.8c0-3-1.4-5.8-3.7-7.7c0.9-0.3,1.9-0.5,2.9-0.5c4.5,0,8.2,3.7,8.2,8.2c0,0.5,0.4,0.8,0.8,0.8
		c0.5,0,0.8-0.4,0.8-0.8C38.4,4.4,34,0,28.6,0c-5.4,0-9.8,4.4-9.8,9.8v1.6h-7.4V9.8c0-4.5,3.7-8.2,8.2-8.2c0.2,0,0.4,0,0.6,0
		c0.5,0,0.8-0.3,0.9-0.8c0-0.4-0.3-0.8-0.8-0.9c-0.2,0-0.5,0-0.7,0c-5.4,0-9.8,4.4-9.8,9.8v20.9C9.5,30.8,9.2,31,9,31.1
		c-0.7,0.4-1.2,0.7-2.5,0.7c-1.2,0-1.8-0.3-2.5-0.7c-0.8-0.4-1.6-0.9-3.3-0.9C0.4,30.2,0,30.6,0,31c0,0.5,0.4,0.8,0.8,0.8
		c1.2,0,1.8,0.3,2.5,0.7C4,33,4.9,33.5,6.5,33.5c1.6,0,2.5-0.5,3.3-0.9c0.7-0.4,1.2-0.7,2.5-0.7c1.2,0,1.8,0.3,2.5,0.7
		c0.8,0.4,1.6,0.9,3.3,0.9c1.6,0,2.5-0.5,3.3-0.9c0.7-0.4,1.2-0.7,2.5-0.7c1.2,0,1.8,0.3,2.5,0.7c0.8,0.4,1.6,0.9,3.3,0.9
		c1.6,0,2.5-0.5,3.3-0.9c0.7-0.4,1.2-0.7,2.5-0.7c1.2,0,1.8,0.3,2.5,0.7c0.8,0.4,1.6,0.9,3.3,0.9c1.6,0,2.5-0.5,3.3-0.9
		c0.7-0.4,1.2-0.7,2.5-0.7c0.5,0,0.8-0.4,0.8-0.8C47.3,30.6,47,30.2,46.5,30.2L46.5,30.2z M11.4,24.5v-4.9h7.4v4.9H11.4z M18.8,13
		v4.9h-7.4V13H18.8z M18.8,13"/>
	<path fill="#606060" d="M40.8,35.1c-1.2,0-1.8-0.3-2.5-0.7c-0.8-0.4-1.6-0.9-3.3-0.9c-1.6,0-2.5,0.5-3.3,0.9
		c-0.7,0.4-1.2,0.7-2.5,0.7s-1.8-0.3-2.5-0.7c-0.8-0.4-1.6-0.9-3.3-0.9c-1.6,0-2.5,0.5-3.3,0.9c-0.7,0.4-1.2,0.7-2.5,0.7
		c-1.2,0-1.8-0.3-2.5-0.7c-0.8-0.4-1.6-0.9-3.3-0.9c-1.6,0-2.5,0.5-3.3,0.9c-0.7,0.4-1.2,0.7-2.5,0.7c-0.5,0-0.8,0.4-0.8,0.8
		c0,0.5,0.4,0.8,0.8,0.8c1.6,0,2.5-0.5,3.3-0.9c0.7-0.4,1.2-0.7,2.5-0.7c1.2,0,1.8,0.3,2.5,0.7c0.8,0.4,1.6,0.9,3.3,0.9
		c1.6,0,2.5-0.5,3.3-0.9c0.7-0.4,1.2-0.7,2.5-0.7c1.2,0,1.8,0.3,2.5,0.7c0.8,0.4,1.6,0.9,3.3,0.9c1.6,0,2.5-0.5,3.3-0.9
		c0.7-0.4,1.2-0.7,2.5-0.7c1.2,0,1.8,0.3,2.5,0.7c0.8,0.4,1.6,0.9,3.3,0.9c0.5,0,0.8-0.4,0.8-0.8C41.6,35.5,41.3,35.1,40.8,35.1
		L40.8,35.1z M40.8,35.1"/>
	<path fill="#606060" d="M35.1,36.7c-1.6,0-2.5,0.5-3.3,0.9c-0.7,0.4-1.2,0.7-2.5,0.7s-1.8-0.3-2.5-0.7c-0.8-0.4-1.6-0.9-3.3-0.9
		c-1.6,0-2.5,0.5-3.3,0.9c-0.7,0.4-1.2,0.7-2.5,0.7c-1.2,0-1.8-0.3-2.5-0.7c-0.8-0.4-1.6-0.9-3.3-0.9c-0.5,0-0.8,0.4-0.8,0.8
		c0,0.5,0.4,0.8,0.8,0.8c1.2,0,1.8,0.3,2.5,0.7c0.8,0.4,1.6,0.9,3.3,0.9c1.6,0,2.5-0.5,3.3-0.9c0.7-0.4,1.2-0.7,2.5-0.7
		c1.2,0,1.8,0.3,2.5,0.7c0.8,0.4,1.6,0.9,3.3,0.9c1.6,0,2.5-0.5,3.3-0.9c0.7-0.4,1.2-0.7,2.5-0.7c0.5,0,0.8-0.4,0.8-0.8
		C35.9,37.1,35.6,36.7,35.1,36.7L35.1,36.7z M35.1,36.7"/>
</g>
</svg>
