<?xml version="1.0" encoding="utf-8"?>
<!-- Generator: Adobe Illustrator 18.0.0, SVG Export Plug-In . SVG Version: 6.00 Build 0)  -->
<!DOCTYPE svg PUBLIC "-//W3C//DTD SVG 1.1//EN" "http://www.w3.org/Graphics/SVG/1.1/DTD/svg11.dtd">
<svg version="1.1" id="Capa_1" xmlns="http://www.w3.org/2000/svg" xmlns:xlink="http://www.w3.org/1999/xlink" x="0px" y="0px"
	 viewBox="508.2 2149.2 59.7 40" enable-background="new 508.2 2149.2 59.7 40" xml:space="preserve">
<g>
	<path fill="#606060" d="M555.3,2178.9c-1.9,0-3.4,1.5-3.4,3.4s1.5,3.4,3.4,3.4s3.4-1.5,3.4-3.4
		C558.8,2180.4,557.2,2178.9,555.3,2178.9L555.3,2178.9z M555.3,2183.7c-0.8,0-1.4-0.6-1.4-1.4c0-0.8,0.6-1.4,1.4-1.4
		c0.8,0,1.4,0.6,1.4,1.4C556.7,2183.1,556.1,2183.7,555.3,2183.7L555.3,2183.7z"/>
	<path fill="#606060" d="M566.7,2168.7c-0.9-1.2-2.4-2-3.9-2.1l-9.4-0.7l-1.3-3.8c-1.4-4.1-4.8-7-8.9-7.9v-4c0-0.3-0.1-0.6-0.4-0.8
		c-0.2-0.2-0.6-0.3-0.9-0.2l-8.1,1.6c-0.5,0.1-0.8,0.5-0.8,1v2.2h-8.5c-4.8,0-9,3.2-10.3,7.9l-0.8,2.7c-0.3,1-1,1.7-1.9,2.1
		c-2,0.8-3.3,2.7-3.3,4.9v11.1c0,0.6,0.5,1,1,1h3.2c0.7,3.1,3.4,5.5,6.8,5.5c3.3,0,6.1-2.4,6.8-5.5h22.4c0.7,3.1,3.4,5.5,6.8,5.5
		c3.3,0,6.1-2.4,6.8-5.5h2.9c0.5,0,0.9-0.4,1-0.8l1.8-9.9C568.1,2171.5,567.7,2169.9,566.7,2168.7L566.7,2168.7z M535.2,2152.7
		l6-1.2v2.5c-0.1,0-0.1,0-0.2,0h-5.8V2152.7z M512.5,2181.7h-2v-1.3h2.2C512.6,2180.8,512.6,2181.3,512.5,2181.7L512.5,2181.7z
		 M519.4,2187.2c-2.7,0-4.8-2.2-4.8-4.8c0-2.7,2.2-4.8,4.8-4.8c2.7,0,4.8,2.2,4.8,4.8S522,2187.2,519.4,2187.2L519.4,2187.2z
		 M555.3,2187.2c-2.7,0-4.8-2.2-4.8-4.8c0-2.7,2.2-4.8,4.8-4.8c2.7,0,4.8,2.2,4.8,4.8C560.2,2185,558,2187.2,555.3,2187.2
		L555.3,2187.2z M564.1,2181.7h-2c0-0.4-0.1-0.8-0.2-1.3h2.4L564.1,2181.7z M565.8,2172.6l-1,5.7H561c-1.2-1.8-3.3-2.9-5.6-2.9
		s-4.4,1.2-5.6,2.9h-18.3c-0.6,0-1,0.5-1,1c0,0.6,0.5,1,1,1h17.3c-0.1,0.4-0.2,0.8-0.2,1.3h-22.2c-0.3-3.5-3.3-6.3-6.9-6.3
		c-2.3,0-4.4,1.2-5.6,2.9h-3.2v-6.7c0-1.3,0.8-2.5,2-3c1.5-0.6,2.6-1.9,3.1-3.5l0.8-2.7c1-3.7,4.4-6.3,8.3-6.3H541
		c4.2,0,7.9,2.7,9.2,6.7l1.5,4.5c0.1,0.4,0.5,0.7,0.9,0.7l10.1,0.7c1,0.1,1.8,0.5,2.4,1.3C565.7,2170.7,565.9,2171.7,565.8,2172.6
		L565.8,2172.6z"/>
	<path fill="#606060" d="M519.4,2178.9c-1.9,0-3.4,1.5-3.4,3.4s1.5,3.4,3.4,3.4c1.9,0,3.4-1.5,3.4-3.4
		C522.8,2180.4,521.3,2178.9,519.4,2178.9L519.4,2178.9z M519.4,2183.7c-0.8,0-1.4-0.6-1.4-1.4c0-0.8,0.6-1.4,1.4-1.4
		c0.8,0,1.4,0.6,1.4,1.4C520.8,2183.1,520.1,2183.7,519.4,2183.7L519.4,2183.7z"/>
	<path fill="#606060" d="M549.2,2163.1c-1.2-3.5-4.5-5.9-8.2-5.9h-16.3c-3.4,0-6.4,2.3-7.2,5.5l-1.1,3.9c-0.1,0.3,0,0.6,0.2,0.9
		c0.2,0.3,0.5,0.4,0.8,0.4h32c0.3,0,0.6-0.2,0.8-0.4c0.2-0.3,0.2-0.6,0.1-0.9L549.2,2163.1z M521.4,2165.9h-2.7l0.7-2.6
		c0.3-1.2,1.1-2.2,2-2.9V2165.9z M536.2,2165.9h-12.7v-6.5c0.4-0.1,0.8-0.1,1.2-0.1h11.5V2165.9z M538.2,2165.9v-6.6h2.7
		c2.8,0,5.3,1.8,6.2,4.5l0.7,2.1H538.2z"/>
	<path fill="#606060" d="M528.8,2179L528.8,2179c-0.3-0.8-1.6-0.8-1.9,0c-0.2,0.4-0.1,0.9,0.3,1.2c0.3,0.3,0.9,0.4,1.2,0.1
		C528.9,2180,529,2179.5,528.8,2179L528.8,2179L528.8,2179z"/>
	<rect x="528.4" y="2170.2" fill="#606060" width="2.5" height="2.5"/>
	<rect x="533.4" y="2170.2" fill="#606060" width="2.5" height="2.5"/>
	<path fill="#606060" d="M538.4,2172.7h-2.5v2.5h2.5V2172.7h2.5v-2.5h-2.5V2172.7z"/>
	<rect x="530.9" y="2172.7" fill="#606060" width="2.5" height="2.5"/>
	<path fill="#606060" d="M564,2171.3c-0.6-0.1-1.1,0.3-1.2,0.8l-0.5,3c-0.1,0.6,0.3,1.1,0.8,1.2c0.1,0,0.1,0,0.2,0
		c0.5,0,0.9-0.4,1-0.8l0.5-3C564.9,2171.9,564.6,2171.4,564,2171.3L564,2171.3z"/>
</g>
</svg>
