<?xml version="1.0" encoding="utf-8"?>
<!-- Generator: Adobe Illustrator 18.0.0, SVG Export Plug-In . SVG Version: 6.00 Build 0)  -->
<!DOCTYPE svg PUBLIC "-//W3C//DTD SVG 1.1//EN" "http://www.w3.org/Graphics/SVG/1.1/DTD/svg11.dtd">
<svg version="1.1" id="Capa_1" xmlns="http://www.w3.org/2000/svg" xmlns:xlink="http://www.w3.org/1999/xlink" x="0px" y="0px"
	 viewBox="0 0 23.8 30" enable-background="new 0 0 23.8 30" xml:space="preserve">
<g>
	<path fill="#606060" d="M16.9,7.7c-1.4-1.4-3.3-2.1-5.4-2c-3.9,0.2-7,3.4-7,7.3c0,1.7,0.6,3.4,1.7,4.7c1.6,1.9,2.4,4.3,2.4,6.7
		c0,0-0.2,1.1,0.6,1.1h5c0.8,0,0.6-1.1,0.6-1.1c0-2.4,0.9-4.8,2.6-6.9c1-1.3,1.6-2.9,1.6-4.5C19.2,10.9,18.4,9,16.9,7.7L16.9,7.7z
		 M16.6,16.7c-1.8,2.3-2.8,4.9-2.8,7.5H10c0-2.7-1-5.3-2.7-7.4c-0.9-1.1-1.4-2.5-1.4-3.9c0-3.2,2.6-5.9,5.8-6
		c1.7-0.1,3.2,0.5,4.4,1.7c1.2,1.1,1.8,2.7,1.8,4.3C17.9,14.3,17.5,15.6,16.6,16.7L16.6,16.7z M16.6,16.7"/>
	<path fill="#606060" d="M20.3,3.5c-0.3-0.3-0.7-0.3-0.9,0L17.8,5c-0.3,0.3-0.3,0.7,0,0.9c0.3,0.2,0.7,0.3,0.9,0l1.6-1.6
		C20.5,4.1,20.5,3.7,20.3,3.5L20.3,3.5z M20.3,3.5"/>
	<path fill="#606060" d="M14.4,26.3H9.3c-0.4,0-0.6,0.3-0.6,0.6c0,0.4,0.3,0.6,0.6,0.6h5.1c0.4,0,0.6-0.3,0.6-0.6
		C15.1,26.6,14.8,26.3,14.4,26.3L14.4,26.3z M14.4,26.3"/>
	<path fill="#606060" d="M13.5,28.7h-3.2c-0.4,0-0.6,0.3-0.6,0.6c0,0.4,0.3,0.6,0.6,0.6h3.2c0.4,0,0.6-0.3,0.6-0.6
		C14.1,29,13.8,28.7,13.5,28.7L13.5,28.7z M13.5,28.7"/>
	<path fill="#606060" d="M11.9,3.5c0.4,0,0.6-0.3,0.6-0.6V0.6c0-0.4-0.3-0.6-0.6-0.6c-0.3,0-0.6,0.3-0.6,0.6v2.2
		C11.2,3.2,11.5,3.5,11.9,3.5L11.9,3.5z M11.9,3.5"/>
	<path fill="#606060" d="M5.9,5.9c0.3-0.3,0.3-0.7,0-0.9L4.4,3.5c-0.3-0.3-0.7-0.3-0.9,0c-0.2,0.3-0.3,0.7,0,0.9L5,5.9
		C5.3,6.2,5.7,6.2,5.9,5.9L5.9,5.9z M5.9,5.9"/>
	<path fill="#606060" d="M23.1,11.2h-2.2c-0.4,0-0.6,0.3-0.6,0.6c0,0.3,0.3,0.6,0.6,0.6h2.2c0.4,0,0.6-0.3,0.6-0.6
		C23.8,11.5,23.5,11.2,23.1,11.2L23.1,11.2z M23.1,11.2"/>
	<path fill="#606060" d="M2.8,11.2H0.6c-0.4,0-0.6,0.3-0.6,0.6c0,0.3,0.3,0.6,0.6,0.6h2.2c0.4,0,0.6-0.3,0.6-0.6
		C3.5,11.5,3.2,11.2,2.8,11.2L2.8,11.2z M2.8,11.2"/>
</g>
</svg>
