<?xml version="1.0" encoding="utf-8"?>
<!-- Generator: Adobe Illustrator 18.0.0, SVG Export Plug-In . SVG Version: 6.00 Build 0)  -->
<!DOCTYPE svg PUBLIC "-//W3C//DTD SVG 1.1//EN" "http://www.w3.org/Graphics/SVG/1.1/DTD/svg11.dtd">
<svg version="1.1" id="Capa_1" xmlns="http://www.w3.org/2000/svg" xmlns:xlink="http://www.w3.org/1999/xlink" x="0px" y="0px"
	 viewBox="522.8 2154.1 30 30" enable-background="new 522.8 2154.1 30 30" xml:space="preserve">
<g>
	<path fill="#606060" d="M548.3,2180.1L548.3,2180.1c-0.3,0-0.5,0.2-0.5,0.5s0.2,0.5,0.5,0.5c0.3,0,0.5-0.2,0.5-0.5
		C548.8,2180.4,548.6,2180.1,548.3,2180.1L548.3,2180.1z"/>
	<path fill="#606060" d="M540.8,2166.1c-0.3,0-0.5,0.2-0.5,0.5s0.2,0.5,0.5,0.5c0.5,0,1.4,0.1,1.6,0.4c0.2,0.2,0.4,1.1,0.4,1.6
		c0,0.3,0.2,0.5,0.5,0.5s0.5-0.2,0.5-0.5s0-1.7-0.6-2.4C542.5,2166.2,541.1,2166.1,540.8,2166.1L540.8,2166.1z"/>
	<path fill="#606060" d="M543.4,2163.6c-0.1,0-2.1-0.5-7.6-0.5c-5.5,0-7.5,0.5-7.6,0.5c-1.5,0.3-2.5,1.3-2.9,2.9
		c0,0.1-0.5,2.1-0.5,6.1c0,4,0.5,6,0.5,6.1c0.4,1.5,1.4,2.5,2.9,2.9c0.1,0,2.1,0.5,7.6,0.5c5.5,0,7.5-0.5,7.6-0.5
		c1.4-0.3,2.4-1.3,2.9-2.9c0-0.1,0.5-2.1,0.5-6.1c0-4-0.5-6-0.5-6.1C546,2165,545,2164,543.4,2163.6L543.4,2163.6z M545.3,2178.5
		c-0.4,1.2-1.1,1.9-2.1,2.2c0,0-2,0.5-7.4,0.5c-5.3,0-7.4-0.5-7.4-0.5c-1.2-0.3-1.8-1-2.1-2.1c0,0-0.5-2-0.5-5.9
		c0-3.9,0.5-5.9,0.5-5.9c0.3-1.2,1-1.9,2.1-2.1c0,0,2-0.5,7.4-0.5c5.3,0,7.4,0.5,7.4,0.5c1.2,0.3,1.9,1,2.1,2.1c0,0,0.5,2,0.5,5.9
		C545.8,2176.5,545.3,2178.5,545.3,2178.5L545.3,2178.5z"/>
	<path fill="#606060" d="M543.3,2170.6c-0.3,0-0.5,0.2-0.5,0.5v0.5c0,0.3,0.2,0.5,0.5,0.5s0.5-0.2,0.5-0.5v-0.5
		C543.8,2170.9,543.6,2170.6,543.3,2170.6L543.3,2170.6z"/>
	<path fill="#606060" d="M534.5,2158.6c-0.2,0.2-0.4,0.5-0.6,0.8c-0.1,0.2-0.1,0.5,0.2,0.7c0.2,0.1,0.5,0.1,0.7-0.2
		c0.6-1.1,1.8-1.8,3-1.8c1.2,0,2.4,0.7,3,1.8c0.1,0.2,0.3,0.2,0.4,0.2c0.1,0,0.2,0,0.3-0.1c0.2-0.1,0.3-0.4,0.2-0.7
		c-0.2-0.3-0.4-0.6-0.6-0.8l3.6-3.6c0.2-0.2,0.2-0.5,0-0.7s-0.5-0.2-0.7,0l-3.6,3.6c-0.7-0.5-1.6-0.8-2.5-0.8
		c-0.9,0-1.8,0.3-2.5,0.8l-3.6-3.6c-0.2-0.2-0.5-0.2-0.7,0s-0.2,0.5,0,0.7L534.5,2158.6z"/>
	<path fill="#606060" d="M549.3,2167.1c0.8,0,1.5-0.7,1.5-1.5s-0.7-1.5-1.5-1.5s-1.5,0.7-1.5,1.5
		C547.8,2166.5,548.5,2167.1,549.3,2167.1L549.3,2167.1z M549.3,2165.1c0.3,0,0.5,0.2,0.5,0.5s-0.2,0.5-0.5,0.5s-0.5-0.2-0.5-0.5
		C548.8,2165.4,549,2165.1,549.3,2165.1L549.3,2165.1z"/>
	<path fill="#606060" d="M550.3,2174.1L550.3,2174.1c-0.3,0-0.5,0.2-0.5,0.5s0.2,0.5,0.5,0.5c0.3,0,0.5-0.2,0.5-0.5
		S550.6,2174.1,550.3,2174.1L550.3,2174.1z"/>
	<path fill="#606060" d="M550.3,2176.1L550.3,2176.1c-0.3,0-0.5,0.2-0.5,0.5s0.2,0.5,0.5,0.5c0.3,0,0.5-0.2,0.5-0.5
		C550.8,2176.4,550.6,2176.1,550.3,2176.1L550.3,2176.1z"/>
	<path fill="#606060" d="M550.3,2178.1L550.3,2178.1c-0.3,0-0.5,0.2-0.5,0.5s0.2,0.5,0.5,0.5c0.3,0,0.5-0.2,0.5-0.5
		C550.8,2178.4,550.6,2178.1,550.3,2178.1L550.3,2178.1z"/>
	<path fill="#606060" d="M549.8,2161.1h-24c-1.7,0-3,1.3-3,3v17c0,1.7,1.3,3,3,3h24c1.7,0,3-1.3,3-3v-17
		C552.8,2162.5,551.5,2161.1,549.8,2161.1L549.8,2161.1z M551.8,2181.1c0,1.1-0.9,2-2,2h-24c-1.1,0-2-0.9-2-2v-17c0-1.1,0.9-2,2-2
		h24c1.1,0,2,0.9,2,2V2181.1z"/>
	<path fill="#606060" d="M550.3,2180.1L550.3,2180.1c-0.3,0-0.5,0.2-0.5,0.5s0.2,0.5,0.5,0.5c0.3,0,0.5-0.2,0.5-0.5
		C550.8,2180.4,550.6,2180.1,550.3,2180.1L550.3,2180.1z"/>
	<path fill="#606060" d="M548.3,2178.1L548.3,2178.1c-0.3,0-0.5,0.2-0.5,0.5s0.2,0.5,0.5,0.5c0.3,0,0.5-0.2,0.5-0.5
		C548.8,2178.4,548.6,2178.1,548.3,2178.1L548.3,2178.1z"/>
	<path fill="#606060" d="M548.3,2176.1L548.3,2176.1c-0.3,0-0.5,0.2-0.5,0.5s0.2,0.5,0.5,0.5c0.3,0,0.5-0.2,0.5-0.5
		C548.8,2176.4,548.6,2176.1,548.3,2176.1L548.3,2176.1z"/>
	<path fill="#606060" d="M550.8,2169.6c0-0.8-0.7-1.5-1.5-1.5s-1.5,0.7-1.5,1.5c0,0.8,0.7,1.5,1.5,1.5S550.8,2170.5,550.8,2169.6
		L550.8,2169.6z M549.3,2170.1c-0.3,0-0.5-0.2-0.5-0.5c0-0.3,0.2-0.5,0.5-0.5s0.5,0.2,0.5,0.5S549.6,2170.1,549.3,2170.1
		L549.3,2170.1z"/>
	<path fill="#606060" d="M548.3,2174.1L548.3,2174.1c-0.3,0-0.5,0.2-0.5,0.5s0.2,0.5,0.5,0.5c0.3,0,0.5-0.2,0.5-0.5
		S548.6,2174.1,548.3,2174.1L548.3,2174.1z"/>
</g>
</svg>
