<?xml version="1.0" encoding="utf-8"?>
<!-- Generator: Adobe Illustrator 18.0.0, SVG Export Plug-In . SVG Version: 6.00 Build 0)  -->
<!DOCTYPE svg PUBLIC "-//W3C//DTD SVG 1.1//EN" "http://www.w3.org/Graphics/SVG/1.1/DTD/svg11.dtd">
<svg version="1.1" id="Capa_1" xmlns="http://www.w3.org/2000/svg" xmlns:xlink="http://www.w3.org/1999/xlink" x="0px" y="0px"
	 viewBox="516.1 2153.6 43.9 31.2" enable-background="new 516.1 2153.6 43.9 31.2" xml:space="preserve">
<g>
	<path fill="#606060" d="M520.9,2167.3c-0.3,0.3-0.3,0.8,0,1.1c0.2,0.2,0.4,0.2,0.6,0.2c0.2,0,0.4-0.1,0.6-0.2
		c8.8-8.8,23-8.8,31.8,0c0.3,0.3,0.8,0.3,1.1,0c0.3-0.3,0.3-0.8,0-1.1C545.6,2157.9,530.3,2157.9,520.9,2167.3L520.9,2167.3z"/>
	<path fill="#606060" d="M538,2166.9c-4.7,0-9,1.8-12.3,5.1c-0.3,0.3-0.3,0.8,0,1.1s0.8,0.3,1.1,0c3-3,7-4.6,11.2-4.6
		s8.2,1.6,11.2,4.6c0.2,0.2,0.4,0.2,0.6,0.2c0.2,0,0.4-0.1,0.6-0.2c0.3-0.3,0.3-0.8,0-1.1C547,2168.7,542.6,2166.9,538,2166.9
		L538,2166.9z"/>
	<path fill="#606060" d="M538,2174.4c-2.9,0-5.2,2.4-5.2,5.2c0,2.9,2.4,5.2,5.2,5.2c2.9,0,5.2-2.4,5.2-5.2
		C543.2,2176.8,540.9,2174.4,538,2174.4L538,2174.4z M538,2183.3c-2,0-3.6-1.6-3.6-3.6s1.6-3.6,3.6-3.6s3.6,1.6,3.6,3.6
		S540,2183.3,538,2183.3L538,2183.3z"/>
	<path fill="#606060" d="M559.7,2162.6c-5.8-5.8-13.5-9-21.7-9c-8.2,0-15.9,3.2-21.7,9c-0.3,0.3-0.3,0.8,0,1.1s0.8,0.3,1.1,0
		c5.5-5.5,12.8-8.5,20.6-8.5c7.8,0,15.1,3,20.6,8.5c0.2,0.2,0.4,0.2,0.6,0.2c0.2,0,0.4-0.1,0.6-0.2
		C560,2163.4,560,2162.9,559.7,2162.6L559.7,2162.6z"/>
</g>
</svg>
