<?xml version="1.0" encoding="utf-8"?>
<!-- Generator: Adobe Illustrator 18.0.0, SVG Export Plug-In . SVG Version: 6.00 Build 0)  -->
<!DOCTYPE svg PUBLIC "-//W3C//DTD SVG 1.1//EN" "http://www.w3.org/Graphics/SVG/1.1/DTD/svg11.dtd">
<svg version="1.1" id="Capa_1" xmlns="http://www.w3.org/2000/svg" xmlns:xlink="http://www.w3.org/1999/xlink" x="0px" y="0px"
	 viewBox="511.8 2146 52.4 45.1" enable-background="new 511.8 2146 52.4 45.1" xml:space="preserve">
<path fill="#606060" d="M563.1,2182.7c-3.8-8.1-6.1-16.2-6.9-19.3c-0.1-0.6-0.4-1.1-0.7-1.6v-1.9c0-0.9-0.5-1.8-1.2-2.4
	c-0.4-0.3-0.8-0.6-1.2-0.9c-5.7-8.3-9.2-10.4-9.3-10.5c0,0-0.1,0-0.1-0.1c-0.1,0-0.7-0.1-1.6,0.9c-1.8,1.8-5.3,9.3-5.6,11.1
	c-0.2,1.3-2.3,4.4-3.1,5.6c0,0,0,0-0.1,0c-2,0.6-4.6,1.9-5.2,3.8c-0.3,1,0,1.9,0.7,2.9c0,1.3,0.2,4.2,1,7.3
	c-0.1,0.2-0.2,0.3-0.3,0.5c-0.4,0.6-0.9,1-1.6,1.4c-0.7,0.3-1.3,0.7-1.7,1.2c-0.4,0.3-0.9,0.9-1.6,1.6c-0.3,0.3-0.5,0.6-0.8,0.9
	c-0.5,0-1.9,0-3.3,0.2c-2.5,0.4-4,1.2-4.3,2.4c-0.3,1.1-0.3,2,0,2.6c0,0,0,0.1,0.1,0.1c-1.3,0.5-2.8,0.9-4,1.1
	c-0.3,0.1-0.6,0.4-0.5,0.7c0,0.3,0.3,0.6,0.6,0.6c1.6,0.1,4,0.2,4.1,0.2c1.1,0,2.2-0.3,3.2-0.8c0,0,0.1,0,0.1-0.1
	c0.9,0.3,1.9,0.5,2.9,0.5l20.4-0.1c0.4,0,0.8-0.2,1-0.6l0,0c7.9,1,12.7,1.1,15.3,1.1c0.7,0,1.2,0,1.6,0h0.1c0.4,0,0.9-0.1,1.3-0.4
	c0.8-0.5,1.3-1.2,1.6-2.1C564.8,2186,563.2,2182.9,563.1,2182.7L563.1,2182.7z M560,2177.7c-1.3-0.1-2.7,0.4-3.5,0.8
	c-0.2-2.3-1.2-7-1.2-7.2c0-0.1-0.1-0.2-0.2-0.3l-2-1c-0.3-0.2-0.5-0.5-0.6-0.9c0-0.3,0.1-0.6,0.3-0.8l0.6-0.7
	c0.6-0.8,0.8-1.8,0.5-2.7l-0.2-0.6c-0.1-0.4-0.2-0.8-0.1-1.2l0.3-1.8l0.5,0.5c0.5,0.5,0.8,1.1,1,1.8
	C556,2166,557.5,2171.5,560,2177.7L560,2177.7z M529,2186.2c-0.5-0.2-1.1-0.4-1.9-0.6c0.8-0.6,1.6-1.2,2.3-1.8l2.5-0.5
	c0.3,0.5,0.6,0.9,0.9,1.3c0.7,0.9,2,2.3,2.6,2.9C533.9,2187.3,530.5,2186.9,529,2186.2L529,2186.2z M531.3,2182.2
	c0,0.1,0.1,0.2,0.1,0.3l-0.6,0.1C531,2182.4,531.2,2182.3,531.3,2182.2L531.3,2182.2z M533.3,2183.7c-0.5-0.6-1-1.4-1.4-2.3
	c0.1-0.2,0.2-0.4,0.2-0.5c0.6-0.6,3.8-3.4,6.2-5.9c-0.1,0.2-0.2,0.4-0.3,0.6c-0.2,0.5-0.2,1,0.1,1.4c0.2,0.5,0.7,0.9,1.3,1.3
	C538.7,2179.4,536.4,2182.6,533.3,2183.7L533.3,2183.7z M538.9,2176.6c-0.1-0.3-0.2-0.5-0.1-0.7c0.1-0.3,0.3-0.7,0.6-1.2
	c0.4-0.8,0.9-1.7,1.3-2.8l0.1-0.1c0.2-0.4,0.3-0.7,0.5-1.1c0.4-0.9,0.8-1.7,1-2.6c0.4,0.5,0.9,1,1.5,1.3c0.9,0.5,2,0.7,3.1,0.5
	c-0.3,0.8-0.7,2-0.7,3.6c0,3,1.7,5.8,1.8,5.9c0.1,0.1,0.2,0.2,0.4,0.2c0,0,0,0,0.1,0c0.2,0,0.3-0.2,0.3-0.3c0-0.2,0.9-4.2,0.8-6.1
	c-0.1-1.3-0.7-2.9-1.1-3.8c1.6-0.6,2.7-1.6,3.3-2.9c0.8-1.9,0.3-4-0.1-4.8c-0.5-1.1-3.4-4.3-6.9-5c-0.5-0.1-1,0.1-1.4,0.4
	c-0.3,0.3-0.6,0.6-0.9,0.9c-0.5,0.5-1,1-1.6,1.5v-0.4c0-0.4,0.1-0.7,0.2-1.1c1.2-3.4,2.4-6,3.1-6.9c3.1,2.7,5.4,5.5,5.8,6l0.2,0.9
	c0.1,0.5,0.3,1,0.7,1.3l2.1,2l-0.3,1.5c-0.1,0.5,0,1.1,0.1,1.6l0.2,0.6c0.2,0.7,0.1,1.4-0.4,1.9l-0.6,0.7c-0.4,0.5-0.5,1.1-0.4,1.7
	c0.1,0.5,0.5,1,1,1.2l1.8,0.9c0.2,1.1,1.3,6,1.2,7.5c-0.1,1.3,0.1,3.3,0.9,5.1l-9.9-2.3c-0.3-0.7-1.3-2.6-3.8-3.2
	C541,2178.4,539.3,2177.5,538.9,2176.6L538.9,2176.6z M537.1,2165.3c-2.5,0.3-3.3-0.2-3.6-0.5c-0.1-0.1-0.1-0.2-0.2-0.3
	c0.3-0.1,0.6-0.2,0.9-0.3c2.1-0.6,3.1-0.9,4.9-2c1.4-1,2.7-2.3,3.9-3.4c0.3-0.3,0.6-0.6,0.9-0.9c0.2-0.2,0.4-0.2,0.6-0.2
	c3.2,0.6,5.9,3.6,6.3,4.5c0.3,0.6,0.8,2.4,0.1,4.1c-0.5,1.2-1.5,2-3,2.5c-1.4,0.5-2.7,0.5-3.7-0.1c-1.1-0.6-1.7-1.6-1.9-2.2
	c0-0.1-0.2-0.5-0.2-0.6c0,0,0,0,0-0.1c-0.3-0.5-0.6-1-1.1-1.3c-0.7-0.4-1.3-0.6-2-0.4C538.2,2164.3,537.7,2164.7,537.1,2165.3
	L537.1,2165.3z M547.7,2170.1c0.4,0.8,0.9,2.2,1,3.3s-0.3,3.3-0.6,4.7c-0.5-1-1.1-2.7-1.1-4.4C547,2172,547.4,2170.8,547.7,2170.1
	L547.7,2170.1z M537.1,2158.2c0.3-1.7,3.7-9,5.3-10.7l0,0c0.4-0.4,0.7-0.6,0.8-0.6c0.6,0.4,3.9,2.9,9,10.3l0.1,0.1
	c0.4,0.3,0.9,0.7,1.3,1c0.5,0.4,0.9,1,0.9,1.7v0.9l-0.2-0.2c-0.2-0.2-0.6-0.3-0.9-0.2c-0.1,0-0.1,0.1-0.2,0.1l-1.9-1.8
	c-0.2-0.2-0.4-0.5-0.4-0.8l-0.2-1c0-0.1,0-0.1-0.1-0.2c0,0-2.7-3.4-6.3-6.5c-0.1-0.1-0.4-0.1-0.5,0c-0.5,0.3-1.6,1.8-3.6,7.5
	c-0.2,0.5-0.2,0.9-0.2,1.4v1.2c-0.4,0.4-0.9,0.7-1.4,1c-1.5,1-2.5,1.3-4.2,1.8C535.4,2162,536.9,2159.6,537.1,2158.2L537.1,2158.2z
	 M529.5,2170.2c0-0.1,0-0.2-0.1-0.3c-0.7-0.8-0.9-1.5-0.7-2.2c0.4-1.3,2.1-2.3,3.8-3c0,0.2,0.1,0.4,0.3,0.6c0.5,0.6,1.5,0.9,2.9,0.9
	c0.2,0,0.4,0,0.6,0c-0.1,0.1-0.2,0.3-0.3,0.4c-0.6,1-1,2.1-1.4,3.2c-0.2,0.6-0.6,1.8-1.4,2.7c-0.7,0.8-2,2.6-3.1,4.1
	C529.8,2174.2,529.5,2171.6,529.5,2170.2L529.5,2170.2z M516.8,2187.8c-0.2-0.4-0.2-1,0.1-1.8c0.5-1.5,3.9-1.9,6-2
	c-0.3,0.3-0.5,0.5-0.8,0.8c-0.6-0.1-1-0.1-1-0.1c-0.2,0-0.4,0.2-0.5,0.4c0,0.2,0.2,0.4,0.4,0.5c0,0,0.1,0,0.3,0
	c-0.6,0.5-1.1,1-1.6,1.3c-0.6,0.4-1.6,0.8-2.7,1.2C517,2188,516.9,2187.9,516.8,2187.8L516.8,2187.8z M516.2,2190.2
	c-0.7,0-1.7-0.1-2.9-0.1c2.5-0.6,5.4-1.6,6.8-2.6c1.5-0.9,3.5-3.1,4.9-4.7c0.6-0.7,1.2-1.3,1.5-1.6c0.4-0.4,0.9-0.7,1.5-1
	c0.8-0.4,1.4-0.9,1.9-1.6c1.1-1.6,3-4.5,3.9-5.4c0.9-0.9,1.3-2.2,1.6-3c0.3-1.1,0.7-2.1,1.3-3c0.7-1.2,1.5-1.9,2.2-2
	c0.4-0.1,0.9,0,1.3,0.3c0.5,0.3,0.9,0.9,1,1.5v0.1c0.1,1.1-0.4,2.1-1,3.4c-0.2,0.3-0.5,1.2-0.5,1.2c-0.9,1.8-6.4,7-8.5,8.8
	c-0.1,0.1-0.1,0.2-0.1,0.3c0,0-0.1,0.8-1.5,1.5c0,0-0.1,0-0.1,0.1c-1.1,1.1-2.4,2.1-3.9,3.2c0,0,0,0-0.1,0c-2.4,1.6-4.9,3.1-6.6,4
	C518.3,2189.9,517.3,2190.2,516.2,2190.2L516.2,2190.2z M522.7,2189.8L522.7,2189.8c-0.7,0-1.3-0.1-2-0.2c1.6-0.9,3.6-2.1,5.4-3.4
	c1.1,0.2,1.9,0.5,2.5,0.7c-0.5,0.6-1.2,1.7-1.3,2.9H522.7z M543.2,2189.6c0,0-0.1,0.1-0.2,0.1l-14.8,0.1c0.1-1.1,0.9-2.1,1.2-2.5
	c2.4,0.8,6.4,1,6.6,1c0.1,0,0.2,0,0.3-0.1c0.6-0.4,1.7-0.9,2-0.7c0.1,0,0.1,0.1,0.2,0.1c0.6,0.1,1.6,0,2.4-0.1
	c0.3,0,0.7,0.1,0.9,0.4l1.3,1.5C543.2,2189.5,543.2,2189.6,543.2,2189.6L543.2,2189.6z M563.1,2188.3c-0.2,0.6-0.5,1.1-1,1.5
	c-0.3,0.3-0.7,0.4-1.2,0.4l0,0c-2.1,0-7.1,0.1-17-1.1c0-0.1-0.1-0.2-0.2-0.2l-1.3-1.5c-0.4-0.5-1-0.7-1.6-0.7
	c-1,0.1-1.7,0.1-2.2,0.1c-0.4-0.3-1.1-0.2-1.9,0.1c-0.2,0.1-0.4,0.2-0.5,0.3c0,0-1.5-1.7-2.5-2.8c3.2-1.3,5.6-4.5,6.3-5.6
	c0.7,0.4,1.6,0.7,2.6,0.9c2.5,0.6,3.2,2.7,3.3,2.8c0,0.1,0.2,0.2,0.3,0.3l10.8,2.5l0.1,0.1l1.1,1.9c0.1,0.2,0.4,0.3,0.6,0.1
	c0.2-0.1,0.2-0.4,0.1-0.5l-1.1-1.9c-1.1-1.8-1.4-4.1-1.4-5.6c0.8-0.5,2.7-1.2,3.8-0.8c0.6,1.5,1.3,2.9,2,4.4l0,0
	C562.9,2184.1,563.7,2186.5,563.1,2188.3L563.1,2188.3z"/>
</svg>
